<?xml version="1.0" encoding="utf-8"?>
<!-- Generator: Adobe Illustrator 23.0.6, SVG Export Plug-In . SVG Version: 6.00 Build 0)  -->
<svg version="1.1" xmlns="http://www.w3.org/2000/svg" xmlns:xlink="http://www.w3.org/1999/xlink" x="0px" y="0px"
	 viewBox="0 0 1053 117" style="enable-background:new 0 0 1053 117;" xml:space="preserve">
<style type="text/css">
	.st0{fill:#FFFFFF;}
	.st1{opacity:0.6;fill:none;stroke:#E60012;stroke-width:5;stroke-linecap:round;stroke-linejoin:round;stroke-miterlimit:10;}
	.st2{opacity:0.6;fill:none;stroke:#E60012;stroke-width:7;stroke-linecap:round;stroke-linejoin:round;stroke-miterlimit:10;}
	.st3{opacity:0.6;fill:none;stroke:#E60012;stroke-width:3;stroke-linecap:round;stroke-linejoin:round;stroke-miterlimit:10;}
</style>
<g id="text">
	<g id="text_1_">
		<path class="st0" d="M109.72,12.38c0.74,0.28,0.93,0.89,0.56,1.82s-1.08,1-1.82,0.56c-2.54-1.44-5.24-2.56-8.05-3.36
			c-3.4-1-6.86-1.75-10.36-2.26c-3.78-0.56-7.78-0.98-12-1.26c-4.22-0.28-8.46-0.41-12.71-0.4c-5.51,0-11.04,0.21-16.59,0.63
			c-5.55,0.42-10.8,1-15.75,1.75c-4.57,0.67-9.1,1.58-13.58,2.73c-3.45,0.85-6.83,1.99-10.08,3.43C6.54,17.14,5,18.4,4.72,19.8v0.14
			c-0.1,0.75,0.65,1.61,2.24,2.59s3.36,2,5.32,3c0-0.09,0.14,0,0.42,0.28c0.12,0.1,0.27,0.15,0.42,0.14
			c2.24,1.12,4.59,2.38,7.07,3.78c2.53,1.45,4.91,3.12,7.14,5c2.31,1.94,4.4,4.12,6.23,6.51c1.89,2.48,3.31,5.28,4.2,8.26
			c0.09,0.19,0.16,0.35,0.21,0.49l0.21,0.77c2.42-5.23,4.8-10.06,7.14-14.49c2.34-4.43,4.44-8.3,6.3-11.62
			c1.86-3.33,3.38-5.97,4.55-7.91c1.16-2,1.84-3.08,2-3.36c0.22-0.21,0.48-0.38,0.77-0.49c0.34-0.14,0.73-0.12,1.05,0.07
			c0.55,0.25,0.8,0.9,0.55,1.46c-0.06,0.14-0.15,0.26-0.27,0.36l0.14-0.14c-0.01,0.11-0.06,0.21-0.14,0.28
			c-0.26,0.32-0.49,0.65-0.7,1h0.14c-0.66,1-1.71,2.82-3.15,5.39s-3.15,5.67-5.11,9.31c-1.96,3.64-4,7.65-6.23,12
			s-4.3,8.87-6.48,13.44c-0.28,5.96-1.49,11.84-3.57,17.43c-2.59,7.22-6.04,14.1-10.25,20.51v-0.14c-0.18,0.17-0.36,0.34-0.56,0.49
			c-0.16,0.13-0.36,0.2-0.56,0.21c-0.38,0-0.56,0-0.56-0.14c-0.66-0.27-0.97-1.02-0.7-1.68c1.71-6.44,3.77-12.78,6.16-19
			c2.42-6.35,4.89-12.42,7.42-18.2c-0.01-0.89-0.1-1.78-0.28-2.66c-0.19-0.93-0.38-1.82-0.56-2.66c-0.79-2.79-2.1-5.4-3.85-7.7
			c-1.71-2.23-3.68-4.25-5.88-6c-2.16-1.7-4.45-3.22-6.86-4.55c-2.38-1.31-4.6-2.47-6.65-3.5c-3-1.59-5.46-3-7.42-4.34
			s-2.8-2.85-2.52-4.62c0.22-1.21,0.87-2.3,1.82-3.07c1.37-1.13,2.84-2.11,4.41-2.94c2.84-1.3,5.79-2.33,8.82-3.08
			c3.54-0.93,7.48-1.77,11.83-2.52s8.99-1.38,13.94-1.89c4.94-0.51,9.98-0.84,15.12-1c1.21-0.09,2.52-0.14,3.92-0.14h3.78
			c8.76-0.11,17.52,0.53,26.18,1.91C99.5,8.1,105.43,9.96,109.72,12.38z M27.12,86.3l0.7-2.66l-1.4,2.38L27.12,86.3z M28.12,83.22
			l-0.14,0.28l-0.14,0.14L28.12,83.22z"/>
		<path class="st0" d="M117.7,55.64c0.3-0.2,0.66-0.25,1-0.14c0.31,0.06,0.6,0.21,0.84,0.42c0.34,0.58,0.28,1.3-0.14,1.82
			c-3.44,2.54-7.04,4.86-10.78,6.93c-3.39,1.9-6.89,3.57-10.5,5c-3.1,1.22-6.28,2.22-9.52,3c-2.57,0.63-5.2,0.96-7.84,1
			c-2.9,0-5-0.51-6.44-1.54c-0.9-0.65-1.55-1.59-1.82-2.66c-0.18-1.52,0.18-3.05,1-4.34c0.88-1.49,1.89-3,3-4.62
			c0.72-0.92,1.39-1.88,2-2.87c0.6-1,0.81-1.7,0.63-2.17l-0.21-0.25c-1.66-0.33-3.38-0.11-4.9,0.63c-2.12,0.87-4.16,1.92-6.1,3.15
			c-2.08,1.3-4.09,2.73-6,4.27c-1.92,1.54-3.39,2.78-4.41,3.71c-0.19,0.19-0.33,0.28-0.42,0.28h-1v-0.12L55.81,67
			c-0.07,0.01-0.13-0.03-0.14-0.1c0-0.01,0-0.03,0-0.04l-0.14-0.14v-0.14l-0.14-0.28v-0.42c-0.02-0.15,0.03-0.31,0.14-0.42L57,62.38
			c0.88-1.87,2.07-4.25,3.57-7.14s3.23-6.14,5.18-9.73c1.97-3.58,4.02-7.23,6.17-10.94s4.36-7.24,6.65-10.57
			c2.05-3.07,4.27-6.03,6.65-8.86c0.36-0.49,1.06-0.6,1.55-0.23c0.05,0.04,0.1,0.08,0.15,0.13c0.65,0.47,0.7,1.07,0.14,1.82
			c-2.58,3.28-4.99,6.69-7.21,10.22c-2.57,4-5.06,8.08-7.49,12.25s-4.67,8.17-6.72,12c-2.06,3.87-3.73,7.07-5,9.59
			c1.4-1.03,2.94-2.11,4.62-3.22c1.63-1.09,3.34-2.08,5.11-2.94c1.6-0.79,3.28-1.43,5-1.89c1.41-0.41,2.9-0.48,4.34-0.21
			c0.59,0.19,1.13,0.53,1.54,1c0.28,0.37,0.51,0.7,0.7,1c0.24,1.21-0.02,2.47-0.72,3.48c-0.7,1.26-1.57,2.64-2.59,4.13
			c-0.88,1.09-1.66,2.26-2.31,3.5c-0.59,0.99-0.99,2.08-1.19,3.22c-0.01,0.08,0.02,0.15,0.07,0.21c0.05,0.06,0.07,0.13,0.07,0.21
			v0.14c1.59,1.12,3.52,1.66,5.46,1.54c2.42-0.06,4.83-0.38,7.18-0.95c3.07-0.7,6.08-1.63,9-2.8c3.49-1.39,6.88-3,10.15-4.83
			C110.76,60.45,114.31,58.16,117.7,55.64z"/>
		<path class="st0" d="M168.52,55.78c0.25-0.28,0.63-0.41,1-0.35c0.31,0.02,0.61,0.14,0.84,0.35c0.48,0.58,0.48,1.42,0,2
			c-1.68,1.53-3.53,2.84-5.53,3.92c-2.29,1.26-4.68,2.33-7.14,3.22c-2.55,0.93-5.17,1.65-7.84,2.17c-2.51,0.5-5.07,0.75-7.63,0.77
			c-2.87,0.13-5.72-0.47-8.3-1.72c-1.18-0.61-2.12-1.59-2.66-2.8c-0.46-1.11-0.7-2.3-0.7-3.5c0-0.73,0.07-1.46,0.21-2.17
			c0.14-0.7,0.25-1.33,0.35-1.89l-1,0.84l-0.84,0.84c-1.12,1-2.34,2.1-3.64,3.22c-1.22,1.06-2.51,2.04-3.85,2.94
			c-1.19,0.79-2.46,1.46-3.78,2c-1.03,0.48-2.17,0.65-3.29,0.49c-0.85-0.23-1.61-0.72-2.17-1.4c-0.52-0.67-0.71-1.55-0.49-2.38
			c0.25-1.06,0.75-2.05,1.47-2.87c0.84-1.03,1.8-1.94,2.87-2.73c1.1-0.83,2.33-1.47,3.64-1.89c1.26-0.42,2.6-0.54,3.92-0.35
			c0.3,0.11,0.56,0.34,0.7,0.63c0.17,0.28,0.26,0.59,0.28,0.91c-0.13,0.32-0.35,0.58-0.63,0.77c-0.26,0.21-0.58,0.33-0.91,0.35
			c-0.98-0.08-1.96,0.06-2.87,0.42c-0.97,0.37-1.89,0.86-2.73,1.47c-0.79,0.57-1.49,1.24-2.1,2c-0.49,0.54-0.83,1.19-1,1.89
			c-0.1,0.28,0.09,0.56,0.56,0.84c0.92-0.08,1.8-0.37,2.59-0.84c1.15-0.61,2.25-1.31,3.29-2.1c1.19-0.85,2.33-1.74,3.42-2.69
			c1.12-0.93,2.1-1.82,2.94-2.66c1.23-1.14,2.51-2.21,3.85-3.22c0.57-0.47,1.27-0.76,2-0.84c0.65,0,1,0.23,1.12,0.7l-0.14-0.14
			c0.16,0.31,0.26,0.65,0.28,1c-0.02,0.41-0.12,0.81-0.28,1.19c-0.28,0.93-0.54,1.89-0.77,2.87c-0.23,0.89-0.34,1.81-0.35,2.73
			c-0.14,1.58,0.55,3.11,1.82,4.06c0.98,0.52,2.05,0.86,3.15,1c1.32,0.19,2.66,0.29,4,0.28c2.3-0.02,4.6-0.26,6.86-0.7
			c2.5-0.48,4.96-1.14,7.35-2c2.33-0.82,4.6-1.8,6.79-2.94C165.14,58.52,166.94,57.27,168.52,55.78z"/>
		<path class="st0" d="M224.38,55.36c0.26-0.19,0.59-0.24,0.9-0.14c0.3,0.06,0.54,0.27,0.64,0.56c0.28,0.34,0.3,0.82,0.06,1.19
			c-0.22,0.52-0.57,0.97-1,1.33c-1.93,1.15-3.94,2.18-6,3.08c-2.28,1.03-4.66,1.97-7.13,2.8c-2.5,0.85-5.05,1.55-7.63,2.1
			c-2.44,0.54-4.92,0.82-7.42,0.84c-1.08,0.01-2.16-0.09-3.23-0.28c-0.95-0.17-1.88-0.4-2.8-0.7c-1.73-0.55-3.14-1.79-3.91-3.43
			c-0.5-1.26-0.92-2.54-1.26-3.85c-0.38-2-0.94-3-1.68-3.22c-1.54-0.09-3.07,0.33-4.35,1.19c-1.89,1.06-3.69,2.28-5.38,3.64
			c-1.8,1.43-3.53,2.95-5.18,4.55c-1.31,1.24-2.55,2.55-3.71,3.92c-0.3,0.21-0.64,0.36-1,0.42h-0.56c-0.29-0.21-0.51-0.5-0.63-0.84
			c-0.12-0.26-0.19-0.55-0.21-0.84l0.56-1.4c0.46-1.21,1.13-2.87,2-5c0.79-1.92,1.75-3.78,2.87-5.53c0.37-0.61,1.16-0.81,1.77-0.45
			c0.01,0.01,0.03,0.02,0.04,0.03c0.58,0.5,0.7,1.35,0.29,2c-0.47,0.72-0.89,1.47-1.26,2.24c-0.47,0.93-0.94,1.91-1.4,2.94
			c1.21-1.12,2.57-2.29,4.06-3.5c1.44-1.18,2.96-2.25,4.55-3.22c1.41-0.86,2.88-1.61,4.41-2.24c1.13-0.53,2.41-0.68,3.64-0.42
			c1.14,0.25,2.11,0.98,2.66,2c0.48,1,0.82,2.06,1,3.15c0.18,1.08,0.49,2.14,0.91,3.15c0.55,1.09,1.55,1.88,2.74,2.17
			c1.62,0.47,3.31,0.71,5,0.7c2.16-0.02,4.32-0.25,6.43-0.7c2.42-0.49,4.81-1.12,7.15-1.89c2.45-0.8,4.86-1.74,7.21-2.8
			c2.3-1.03,4.52-2.22,6.64-3.57L224.38,55.36z"/>
		<path class="st0" d="M277.85,55.64c0.31-0.19,0.7-0.24,1.05-0.14c0.34,0.05,0.65,0.19,0.91,0.42c0.2,0.29,0.27,0.65,0.21,1
			c-0.03,0.34-0.21,0.65-0.49,0.84c-2.9,2.11-5.97,3.99-9.17,5.6c-3.26,1.66-6.62,3.08-10.08,4.27c-3.29,1.14-6.66,2.03-10.08,2.66
			c-3.02,0.58-6.09,0.88-9.17,0.91c-2.07,0.03-4.14-0.18-6.16-0.63c-1.58-0.32-3.03-1.07-4.2-2.17c-0.77-0.79-1.39-1.72-1.82-2.73
			c-0.48-1.42-0.53-2.96-0.14-4.41c-1.49,1.03-2.89,2.08-4.2,3.15c-1.3,1.07-2.33,2-3.08,2.73c-0.11,0.01-0.21,0.06-0.28,0.14h-1
			l-0.23-0.14c-0.18,0-0.28-0.14-0.28-0.42c-0.2-0.23-0.3-0.53-0.28-0.84v-0.14l0.14-0.28c0.1-0.28,0.61-1.35,1.54-3.22
			c0.93-1.87,2.13-4.25,3.57-7.14s3.15-6.14,5.11-9.73s4-7.21,6.23-10.85s4.41-7.14,6.65-10.5c2.01-3.08,4.2-6.05,6.55-8.88
			c0.45-0.54,1.25-0.61,1.79-0.17c0.01,0.01,0.02,0.02,0.03,0.03c0.5,0.42,0.57,1.17,0.14,1.68c-0.04,0.05-0.09,0.1-0.14,0.14
			c-2.66,3.25-5.11,6.67-7.35,10.22c-2.56,4-5.03,8.11-7.42,12.32s-4.6,8.25-6.65,12.11c-2.05,3.87-3.71,7.07-5,9.59
			c0.94-0.75,2-1.49,3.08-2.24s2.29-1.49,3.5-2.24c1.83-1.07,3.79-1.89,5.84-2.44c1.69-0.51,3.48-0.54,5.18-0.07
			c0.63,0.04,1.11,0.58,1.07,1.2c-0.01,0.11-0.03,0.23-0.07,0.34c-0.37,0.84-0.93,1.17-1.68,1c-1.32-0.36-2.72-0.29-4,0.21
			c-1.74,0.55-3.41,1.28-5,2.17v-0.14c-0.8,1.42-1.28,3-1.4,4.62c0.07,1.1,0.51,2.14,1.26,2.94c0.94,0.84,2.11,1.38,3.36,1.54
			c1.71,0.3,3.44,0.44,5.18,0.42c3.68-0.04,7.34-0.46,10.94-1.23c4.85-1.09,9.58-2.67,14.11-4.71
			C270.14,60.61,274.14,58.34,277.85,55.64z"/>
		<path class="st0" d="M377.67,55.5c0.25-0.21,0.59-0.29,0.91-0.21c0.33,0.01,0.65,0.14,0.91,0.35c0.37,0.55,0.37,1.27,0,1.82
			c-4.38,3.88-9.44,6.93-14.91,9c-6.11,2.47-12.72,4.92-19.81,7.35c-0.71,4.5-1.98,8.9-3.78,13.09c-1.89,4.47-4.49,8.6-7.7,12.24
			c-3.3,3.54-7.21,6.46-11.55,8.61c-3.44,1.82-7.24,2.85-11.13,3c-2.88,0.13-5.71-0.76-8-2.52c-1.96-1.49-3.06-3.84-2.94-6.3
			c0-2.33,1.03-5.13,3.08-8.4c2.03-2.67,4.46-5.01,7.21-6.93c3.09-2.19,6.34-4.13,9.73-5.81c3.56-1.77,7.3-3.38,11.23-4.85
			s7.8-2.87,11.62-4.2c0.18-1.16,0.3-2.33,0.35-3.5c0.05-1.12,0.07-2.19,0.07-3.22c0.01-1.8-0.11-3.6-0.35-5.39
			c-0.17-1.42-0.53-2.8-1.05-4.13c-0.56-1.4-1.07-2.15-1.54-2.24c-0.7-0.07-1.41,0.1-2,0.49c-0.77,0.47-1.49,1.01-2.17,1.61
			c-0.82,0.72-1.59,1.49-2.31,2.31c-0.79,0.89-1.56,1.8-2.31,2.73c-0.93,1.12-1.87,2.22-2.8,3.29c-0.88,1.03-1.87,1.97-2.94,2.8
			c-0.94,0.74-1.98,1.35-3.08,1.82c-1.02,0.42-2.14,0.54-3.22,0.35c-0.87-0.11-1.69-0.45-2.38-1c-0.51-0.44-0.95-0.95-1.3-1.52
			c-0.47-0.88-0.65-1.89-0.49-2.87c0.14-1.07,0.4-2.13,0.77-3.15c0.38-1,0.75-1.94,1.12-2.73c0.22-0.52,0.5-1.01,0.84-1.47
			c0.2-0.58,0.83-0.89,1.41-0.7c0.1,0.03,0.19,0.08,0.27,0.14c0.53,0.44,0.75,1.16,0.56,1.82c-0.32,0.54-0.6,1.1-0.84,1.68
			c-0.29,0.69-0.55,1.39-0.77,2.1c-0.23,0.73-0.39,1.48-0.49,2.24c-0.1,0.61-0.05,1.23,0.14,1.82c0.36,0.53,0.91,0.89,1.54,1
			c1.59,0.28,3.17-0.4,4.76-2c1.59-1.6,3.22-3.43,4.9-5.39c1.87-2.15,3.66-4.06,5.39-5.74c1.4-1.55,3.44-2.38,5.53-2.24
			c0.72,0.16,1.41,0.47,2,0.91c0.95,0.78,1.65,1.82,2,3c0.49,1.49,0.83,3.02,1.04,4.58c0.29,1.95,0.43,3.91,0.42,5.88
			c0,1,0,2-0.07,2.87c-0.06,0.96-0.17,1.92-0.35,2.87c6.72-2.24,12.95-4.53,18.69-6.86C368.96,61.98,373.64,59.13,377.67,55.5z
			 M331.33,97.36c2.85-3.21,5.19-6.85,6.93-10.78c1.68-3.77,2.92-7.71,3.71-11.76c-3.83,1.33-7.58,2.71-11.27,4.13
			c-3.55,1.39-7.03,2.95-10.43,4.69c-3.09,1.58-6.06,3.38-8.89,5.39c-2.46,1.74-4.64,3.84-6.46,6.23c-0.74,1.12-1.35,2.31-1.82,3.57
			c-0.41,1-0.65,2.07-0.7,3.15c0,0.83,0.19,1.64,0.56,2.38c0.36,0.74,0.83,1.41,1.4,2c1.87,1.33,4.15,1.97,6.44,1.82
			c3.41-0.13,6.75-0.99,9.8-2.52C324.68,103.62,328.33,100.8,331.33,97.36z"/>
		<path class="st0" d="M430.73,55.36c0.75-0.47,1.31-0.23,1.68,0.7c0.19,0.27,0.21,0.62,0.07,0.91c-0.16,0.34-0.43,0.61-0.77,0.77
			c-3.09,1.22-6.24,2.24-9.45,3.08c-3.5,0.93-7.12,1.73-10.85,2.38c-3.73,0.65-7.35,1.17-10.85,1.54c-3.5,0.37-6.65,0.61-9.45,0.7
			c-1.34,1.62-2.9,3.06-4.62,4.27c-1.5,1.11-3.31,1.72-5.18,1.75c-2.52,0-4.34-0.75-5.46-2.24c-1.07-1.36-1.66-3.03-1.68-4.76
			c0-1.15,0.25-2.28,0.75-3.32c0.49-1.04,1.13-2.01,1.89-2.87c0.15-1.08,0.56-2.11,1.19-3c0.71-1.08,1.53-2.09,2.45-3
			c1.48-1.27,3.13-2.33,4.9-3.15c1.74-0.86,3.66-1.31,5.6-1.33c0.59,0,1.18,0.07,1.75,0.21c0.55,0.12,1.09,0.28,1.61,0.49
			c0.79,0.39,1.44,0.99,1.89,1.75c0.7,0.98,0.82,2.54,0.35,4.69c-0.33,1.28-0.73,2.54-1.19,3.78c-0.54,1.44-1.27,2.81-2.17,4.06
			c2.61-0.09,5.52-0.3,8.75-0.63s6.49-0.82,9.8-1.47c3.33-0.67,6.62-1.44,9.87-2.31C424.71,57.54,427.75,56.54,430.73,55.36z
			 M381.31,68.8c2.15,0,4.25-1.17,6.3-3.5c-0.54,0.01-1.08-0.02-1.61-0.07c-0.42,0-0.86-0.12-1.33-0.21
			c-1.49-0.31-2.95-0.78-4.34-1.4c-1.12-0.48-2.08-1.26-2.8-2.24c-0.58,0.92-0.87,1.99-0.84,3.08c0,1.1,0.39,2.17,1.12,3
			C378.71,68.42,380,68.91,381.31,68.8z M385.09,62.36c1.57,0.32,3.16,0.46,4.76,0.42c1.98-2.47,3.42-5.33,4.2-8.4
			c0.19-0.61,0.24-1.26,0.14-1.89c-0.03-0.6-0.34-1.14-0.84-1.47c-1.82-0.75-3.85-0.75-5.67,0c-1.98,0.69-3.81,1.75-5.39,3.12
			l-1.05,1c-0.28,0.28-0.54,0.58-0.77,0.91c0.65-0.21,1.32-0.35,2-0.42c0.79-0.09,1.58-0.14,2.38-0.14c0.75,0,1.12,0.42,1.12,1.26
			s-0.37,1.4-1.12,1.4c-0.97-0.01-1.93,0.11-2.87,0.35c-0.81,0.2-1.58,0.51-2.31,0.91c0.5,0.77,1.19,1.39,2,1.82
			C382.73,61.83,383.89,62.22,385.09,62.36z M389.99,62.78h-0.14v0.14L389.99,62.78z"/>
		<path class="st0" d="M491.35,55.36c0.32-0.2,0.73-0.2,1.05,0c0.31,0.17,0.57,0.41,0.77,0.7c-0.01,0.31-0.08,0.62-0.21,0.91
			c-0.12,0.28-0.28,0.54-0.49,0.77c-0.28,0.19-1.38,0.7-3.29,1.54s-4.22,1.77-6.93,2.8c-2.88,1.08-5.83,2-8.82,2.73
			c-2.94,0.76-5.96,1.16-9,1.19c-2.68,0.09-5.31-0.64-7.56-2.1c-1.18-0.92-2.04-2.2-2.45-3.64c-0.53-1.72-0.69-3.53-0.49-5.32
			l-2.24,1.61c-0.84,0.61-1.63,1.24-2.38,1.89c-1.37,1.13-2.84,2.25-4.39,3.36s-3.12,2.16-4.69,3.15c-1.43,0.92-2.92,1.71-4.48,2.38
			c-1.26,0.57-2.62,0.88-4,0.91c-0.77,0.03-1.54-0.11-2.24-0.42h0.14c-1.44-0.65-2.48-1.95-2.8-3.5c-0.17-1.64,0.21-3.29,1.07-4.69
			c0.84-1.48,1.85-2.87,3-4.13c0.52-0.47,1.33-0.42,1.79,0.11c0.01,0.01,0.02,0.02,0.03,0.03c0.5,0.43,0.56,1.19,0.13,1.69
			c-0.04,0.05-0.08,0.09-0.13,0.13c-1.73,1.77-2.9,4.01-3.36,6.44c0.37,0.75,0.79,1.17,1.26,1.26c1.05,0.45,2.24,0.44,3.28-0.02
			c1.56-0.55,3.06-1.25,4.48-2.1c1.65-0.98,3.24-2.05,4.76-3.22c1.59-1.21,3.09-2.33,4.48-3.36c2.61-1.96,4.48-3.34,5.6-4.13
			c1.12-0.79,2-1,2.8-0.49c0.25,0.26,0.48,0.55,0.7,0.84c0.31,0.46,0.38,1.04,0.18,1.56c-0.75,3.73-0.19,6.29,1.68,7.7
			c1.72,1.04,3.73,1.53,5.74,1.4c2.33-0.03,4.66-0.31,6.93-0.84c2.58-0.56,5.13-1.27,7.63-2.1c2.51-0.84,4.85-1.73,7.02-2.66
			C488.15,56.81,489.92,56.01,491.35,55.36z"/>
		<path class="st0" d="M585.15,55.78c0.26-0.26,0.63-0.39,1-0.35c0.33,0.01,0.65,0.14,0.91,0.35c0.55,0.5,0.59,1.35,0.09,1.91
			c-0.03,0.03-0.06,0.06-0.09,0.09c-2.25,2.12-4.83,3.87-7.63,5.18c-3.12,1.47-6.35,2.68-9.66,3.64c-3.57,1.03-7.19,1.88-10.85,2.54
			c-3.78,0.67-7.58,1.33-11.41,2c-4.67,0.75-9.26,1.57-13.79,2.45c-3.9,0.69-7.69,1.89-11.27,3.57c-2.33,4.42-4.43,8.95-6.3,13.58
			l0.84,3.5l0.28,1c0.56,1.87,1,3.66,1.4,5.39c0.35,1.54,0.54,3.11,0.56,4.69c0.08,1.51-0.27,3.02-1,4.34
			c-0.87,1.24-2.26,2.02-3.78,2.1c-0.1,0-0.19,0.02-0.28,0.07c-0.13,0.06-0.28,0.08-0.42,0.07c-0.78-0.01-1.53-0.25-2.17-0.7
			c-0.69-0.45-1.24-1.08-1.61-1.82c-0.22-0.46-0.36-0.96-0.42-1.47c-0.09-0.63-0.14-1.26-0.14-1.89c0.07-2.33,0.44-4.65,1.12-6.88
			c0.82-2.9,1.8-5.75,2.94-8.54c-0.73-2.5-0.83-5.15-0.28-7.7c0.93-3.17,3.36-5.79,7.28-7.84l3.5-6.72
			c2.15-3.73,4.58-7.81,7.28-12.25c2.7-4.44,5.57-8.8,8.61-13.09c3.03-4.29,6.11-8.35,9.24-12.18c2.75-3.44,5.76-6.67,9-9.66
			c5.33-4.76,9.81-7.14,13.44-7.14c1.28,0,2.54,0.35,3.64,1h-0.14c0.57,0.29,1.06,0.72,1.4,1.26c0.5,0.84,0.7,1.83,0.56,2.8
			c-0.37,2.04-1.18,3.98-2.38,5.67c-1.62,2.48-3.42,4.85-5.39,7.07c-2.38,2.7-4.93,5.25-7.63,7.63c-2.9,2.57-5.93,5.02-9.1,7.35
			c-3.07,2.29-6.27,4.41-9.58,6.34c-2.99,1.73-6.13,3.19-9.38,4.34c-1.68,2.71-3.27,5.38-4.76,8c-1.5,2.61-2.89,5.27-4.2,8
			c3.37-1.22,6.82-2.18,10.34-2.86c3.87-0.75,7.96-1.49,12.25-2.24c3.73-0.56,7.44-1.17,11.13-1.82s7.2-1.46,10.54-2.42
			c3.15-0.87,6.22-2.02,9.17-3.43C580.65,59.48,583.07,57.82,585.15,55.78z M515.99,108.14c0.74-1.12,0.91-2.82,0.49-5.11
			s-1-4.64-1.61-7.07l-0.28-0.84v-0.14c-1.05,2.7-1.85,5.48-2.38,8.33c-0.4,1.69-0.35,3.45,0.14,5.11v-0.14
			c0.17,0.26,0.39,0.5,0.63,0.7c0.36,0.21,0.79,0.26,1.19,0.14c0.76-0.09,1.47-0.44,2-1L515.99,108.14z M515.57,87v-1.68l-0.56,1.54
			L515.57,87z M515.57,85.32l2.35-5.32c-0.54,0.53-1.01,1.11-1.4,1.75c-0.38,0.61-0.71,1.24-1,1.89L515.57,85.32z M559.92,23.14
			c-4.42,3.98-8.44,8.39-12,13.16c-4.06,5.33-8.14,11.17-12.25,17.5c4.71-2.12,9.21-4.69,13.43-7.66c4.32-3.03,8.42-6.37,12.25-10
			c3.28-3.06,6.32-6.36,9.1-9.87c2.42-3.13,3.73-5.62,3.92-7.49c0-0.75-0.14-1.21-0.42-1.4c-0.41-0.2-0.83-0.36-1.26-0.49
			c-0.36-0.12-0.74-0.19-1.12-0.21c-2.11,0.07-4.16,0.77-5.88,2C563.66,20.02,561.73,21.51,559.92,23.14z"/>
		<path class="st0" d="M638.35,55.36c0.74-0.47,1.3-0.23,1.68,0.7c0.18,0.27,0.21,0.62,0.07,0.91c-0.16,0.34-0.43,0.61-0.77,0.77
			c-3.07,1.21-6.21,2.24-9.41,3.08c-3.5,0.93-7.12,1.73-10.85,2.38c-3.73,0.65-7.36,1.17-10.89,1.54c-3.5,0.37-6.65,0.61-9.45,0.7
			c-1.34,1.62-2.9,3.06-4.62,4.27c-1.51,1.11-3.32,1.72-5.19,1.75c-2.52,0-4.34-0.75-5.46-2.24c-1.07-1.36-1.66-3.03-1.68-4.76
			c0-1.14,0.26-2.27,0.77-3.29c0.49-1.04,1.13-2.01,1.89-2.87c0.15-1.08,0.56-2.11,1.19-3c0.71-1.08,1.53-2.09,2.45-3
			c1.48-1.27,3.13-2.33,4.9-3.15c1.74-0.86,3.66-1.32,5.6-1.33c0.59,0,1.18,0.07,1.75,0.21c0.55,0.12,1.09,0.29,1.61,0.49
			c0.79,0.39,1.44,0.99,1.89,1.75c0.7,1,0.81,2.54,0.35,4.69c-0.33,1.28-0.73,2.54-1.19,3.78c-0.54,1.44-1.27,2.81-2.17,4.06
			c2.61-0.09,5.53-0.3,8.75-0.63c3.22-0.33,6.48-0.82,9.8-1.47s6.6-1.42,9.87-2.31C632.33,57.56,635.38,56.54,638.35,55.36z
			 M588.92,68.8c2.14,0,4.24-1.17,6.3-3.5c-0.54,0.01-1.08-0.02-1.61-0.07c-0.42,0-0.87-0.12-1.33-0.21
			c-1.49-0.31-2.95-0.78-4.34-1.4c-1.12-0.48-2.09-1.25-2.8-2.24c-0.58,0.92-0.87,1.99-0.84,3.08c0,1.1,0.39,2.17,1.12,3
			C586.32,68.42,587.61,68.91,588.92,68.8z M592.7,62.36c1.57,0.32,3.16,0.46,4.76,0.42c1.98-2.47,3.42-5.33,4.2-8.4
			c0.19-0.61,0.23-1.26,0.14-1.89c-0.04-0.59-0.35-1.14-0.84-1.47c-1.82-0.75-3.85-0.75-5.67,0c-1.97,0.69-3.79,1.75-5.37,3.12
			c-0.38,0.37-0.71,0.7-1,1c-0.29,0.28-0.55,0.58-0.77,0.91c0.65-0.21,1.32-0.35,2-0.42c0.79-0.09,1.58-0.14,2.38-0.14
			c0.74,0,1.12,0.42,1.12,1.26s-0.38,1.4-1.12,1.4c-0.97-0.01-1.93,0.11-2.87,0.35c-0.81,0.2-1.58,0.51-2.31,0.91
			c0.5,0.77,1.19,1.4,2,1.82C590.39,61.82,591.53,62.21,592.7,62.36L592.7,62.36z M597.6,62.78h-0.14v0.14L597.6,62.78z"/>
		<path class="st0" d="M679.37,55.64c0.25-0.22,0.59-0.29,0.91-0.21c0.33,0.01,0.65,0.14,0.91,0.35c0.39,0.61,0.39,1.39,0,2
			c-2.41,1.88-4.99,3.52-7.71,4.9c-2.88,1.49-5.84,2.8-8.88,3.92c-2.86,1.05-5.78,1.89-8.75,2.54c-2.43,0.56-4.92,0.87-7.42,0.91
			c-1.66,0.09-3.33-0.14-4.9-0.7c-1.38-0.6-2.39-1.82-2.73-3.29c-0.32-1.36-0.53-2.74-0.63-4.13c-0.02-1.04-0.19-2.08-0.49-3.08
			c-0.31-0.6-0.96-0.93-1.62-0.84c-3.54,0-5.83-0.93-6.85-2.8v0.14c-0.94-1.31-0.7-3.08,0.69-5.32v0.11
			c0.94-1.69,2.29-3.11,3.93-4.13c1.56-1.1,3.41-1.71,5.31-1.75c1.87,0.19,3.08,0.84,3.65,2c0.56,1.31,0.32,2.8-0.7,4.48
			s-2.15,3.45-3.37,5.32c0.94,0.55,1.56,1.51,1.68,2.59c0.18,1.09,0.28,2.19,0.29,3.29c0.06,1.06,0.2,2.11,0.42,3.15
			c0.16,0.77,0.68,1.42,1.4,1.75c0.56,0.22,1.15,0.36,1.75,0.42c0.72,0.09,1.44,0.14,2.17,0.14c2.4-0.04,4.79-0.32,7.13-0.84
			c2.84-0.6,5.64-1.41,8.36-2.42c2.86-1.03,5.65-2.27,8.33-3.71C674.79,59.1,677.18,57.49,679.37,55.64z M638.37,54.8
			c0.37-0.47,0.79-1,1.26-1.75s0.88-1.4,1.26-2.1s0.69-1.38,1-2c0.24-0.48,0.38-1,0.42-1.54c-0.11-0.2-0.33-0.31-0.56-0.28h-0.83
			c-1.34,0.08-2.63,0.54-3.72,1.33c-1.27,0.8-2.34,1.88-3.14,3.15c-0.23,0.35-0.42,0.73-0.56,1.12c-0.19,0.35-0.19,0.77,0,1.12
			c0.18,0.47,0.72,0.82,1.6,1c0.98,0.25,1.99,0.41,3,0.49v-0.28l0.15-0.14L638.37,54.8z"/>
		<path class="st0" d="M768.26,55.5c0.66-0.37,1.36-0.14,2.1,0.7c0.38,0.75,0.14,1.31-0.7,1.68h0.14c-3.36,1.94-6.9,3.56-10.57,4.83
			c-4.09,1.45-8.24,2.69-12.46,3.71c-4.24,1.03-8.37,1.83-12.39,2.38c-3.38,0.51-6.8,0.79-10.22,0.84c-1.21,0-2.28,0-3.22-0.14
			c-0.77-0.05-1.53-0.24-2.24-0.56c-1.49-0.56-2.71-1.66-3.43-3.08c-0.7-1.41-0.72-3.05-0.07-4.48c0.55-1.43,1.38-2.74,2.45-3.85
			c1.16-1.25,2.47-2.33,3.92-3.22c1.38-0.86,2.9-1.5,4.48-1.89c1.41-0.38,2.89-0.33,4.27,0.14c0.94,0.37,1.26,0.89,1,1.54
			c-0.46,0.84-1.02,1.12-1.68,0.84c-1.11-0.27-2.28-0.23-3.36,0.14c-1.26,0.39-2.46,0.96-3.57,1.68c-1.15,0.74-2.2,1.61-3.15,2.59
			c-0.84,0.82-1.52,1.8-2,2.87c-0.46,0.8-0.46,1.79,0,2.59c0.54,0.76,1.26,1.36,2.1,1.75c0.64,0.23,1.32,0.37,2,0.42
			c0.84,0.09,1.68,0.14,2.52,0.14c3.24-0.05,6.46-0.33,9.66-0.84c3.83-0.56,7.83-1.35,12-2.38c4.12-1.02,8.19-2.25,12.18-3.71
			C761.56,58.93,764.99,57.36,768.26,55.5z"/>
		<path class="st0" d="M821.18,55.36c0.75-0.47,1.31-0.23,1.68,0.7c0.19,0.27,0.21,0.62,0.07,0.91c-0.15,0.35-0.42,0.62-0.77,0.77
			c-3.09,1.22-6.24,2.24-9.45,3.08c-3.5,0.93-7.12,1.73-10.85,2.38c-3.73,0.65-7.35,1.17-10.85,1.54c-3.5,0.37-6.65,0.61-9.45,0.7
			c-1.35,1.63-2.91,3.06-4.64,4.27c-1.5,1.11-3.31,1.72-5.18,1.75c-2.52,0-4.34-0.75-5.46-2.24c-1.07-1.36-1.66-3.03-1.67-4.76
			c0-1.14,0.26-2.26,0.76-3.29c0.5-1.04,1.13-2,1.89-2.87c0.16-1.08,0.57-2.11,1.19-3c0.71-1.08,1.53-2.09,2.45-3
			c1.49-1.27,3.15-2.33,4.92-3.16c1.74-0.86,3.66-1.31,5.6-1.33c0.59,0,1.18,0.07,1.75,0.21c0.55,0.12,1.09,0.28,1.61,0.49
			c0.79,0.39,1.44,0.99,1.89,1.75c0.71,1,0.82,2.54,0.35,4.69c-0.33,1.28-0.72,2.54-1.19,3.78c-0.53,1.45-1.26,2.81-2.17,4.06
			c2.62-0.09,5.53-0.3,8.75-0.63s6.49-0.82,9.8-1.47s6.61-1.42,9.87-2.31C815.17,57.55,818.21,56.54,821.18,55.36z M771.76,68.8
			c2.15,0,4.25-1.17,6.3-3.5c-0.53,0.01-1.07-0.02-1.6-0.07c-0.43,0-0.87-0.12-1.33-0.21c-1.5-0.31-2.95-0.78-4.35-1.4
			c-1.11-0.49-2.08-1.26-2.8-2.24c-0.58,0.92-0.87,1.99-0.84,3.08c0,1.1,0.4,2.17,1.12,3C769.16,68.42,770.45,68.91,771.76,68.8z
			 M775.54,62.36c1.57,0.32,3.16,0.46,4.76,0.42c1.98-2.47,3.42-5.33,4.2-8.4c0.2-0.61,0.25-1.26,0.14-1.89
			c-0.03-0.6-0.34-1.14-0.84-1.47c-1.82-0.75-3.85-0.75-5.67,0c-1.98,0.69-3.81,1.75-5.39,3.12l-1.05,1
			c-0.28,0.28-0.54,0.59-0.77,0.91c0.65-0.21,1.32-0.35,2-0.42c0.79-0.09,1.58-0.14,2.38-0.14c0.75,0,1.12,0.42,1.12,1.26
			s-0.37,1.4-1.12,1.4c-0.97,0-1.93,0.11-2.87,0.35c-0.81,0.2-1.58,0.51-2.31,0.91c0.5,0.77,1.19,1.39,2,1.82
			C773.18,61.83,774.34,62.21,775.54,62.36L775.54,62.36z M780.44,62.78h-0.14v0.14L780.44,62.78z"/>
		<path class="st0" d="M889.5,55.92c0.3,0.67,0.05,1.45-0.58,1.82l-5.11,2.8c-2.56,1.4-5.48,2.85-8.75,4.34s-6.59,2.83-9.94,4
			c-2.78,1.06-5.71,1.65-8.68,1.75c-1.01,0.04-2.02-0.15-2.94-0.56c-1.19-0.34-2.05-1.36-2.17-2.59c-0.14-1.19-0.12-2.39,0.07-3.57
			c0.1-0.58,0.15-1.16,0.14-1.75c0.05-0.42-0.05-0.84-0.28-1.19l-0.14-0.28v0.14c-1.31,0.08-2.6,0.42-3.78,1
			c-1.52,0.68-3,1.45-4.42,2.31c-1.49,0.89-2.92,1.82-4.27,2.8s-2.4,1.75-3.15,2.31c-0.52,0.28-1.16,0.28-1.68,0
			c-0.42-0.4-0.63-0.97-0.56-1.54c0.56-1.21,1.12-2.59,1.68-4.13c0.56-1.54,1.07-3,1.54-4.48c0.44-1.3,0.77-2.64,1-4
			c0.17-0.88,0.22-1.77,0.14-2.66c-1.47,0.17-2.87,0.72-4.06,1.61c-1.9,1.21-3.7,2.58-5.38,4.09c-1.87,1.68-3.72,3.48-5.53,5.39
			c-1.81,1.91-3.42,3.72-4.83,5.41c-0.45,0.54-1.25,0.61-1.79,0.17c-0.01-0.01-0.02-0.02-0.03-0.03c-0.56-0.19-0.74-0.61-0.56-1.26
			c0.02-0.15,0.07-0.29,0.14-0.42c0.16-0.33,0.3-0.66,0.42-1c0.47-1.31,1.19-3,2.17-5.18c0.87-1.94,1.87-3.81,3-5.6l-0.14,0.14
			c0.56-0.75,1.17-0.84,1.82-0.28s0.84,0.84,0.84,1.12c-0.55,0.73-1.04,1.5-1.47,2.31c-0.42,0.79-0.82,1.56-1.19,2.31
			c1.22-1.4,2.59-2.82,4.13-4.27c1.48-1.38,3.05-2.65,4.7-3.81c1.43-1.03,2.95-1.92,4.55-2.66c1.19-0.61,2.53-0.85,3.85-0.7
			c0.74,0.17,1.35,0.67,1.66,1.36c0.3,0.8,0.42,1.66,0.35,2.52c-0.03,1.13-0.15,2.26-0.35,3.38c-0.26,1.28-0.59,2.54-1,3.78
			c-0.42,1.31-0.82,2.52-1.19,3.64c0.93-0.65,2-1.35,3.15-2.1c1.15-0.73,2.35-1.4,3.57-2c1.14-0.58,2.31-1.09,3.5-1.54
			c1.03-0.4,2.12-0.61,3.22-0.63c0.81,0.03,1.57,0.39,2.1,1c0.5,0.54,0.78,1.26,0.77,2c0.05,0.79,0.03,1.59-0.07,2.38v0.42
			c-0.18,2.15,0,3.41,0.56,3.78c1.49,0.47,3.73,0.3,6.72-0.49c3.22-0.87,6.38-1.97,9.45-3.29c3.31-1.4,6.54-2.92,9.66-4.55
			s5.58-3,7.35-4l-0.14,0.14c0.66-0.56,1.26-0.47,1.82,0.28L889.5,55.92z"/>
		<path class="st0" d="M926.18,55.78c0.25-0.28,0.63-0.41,1-0.35c0.31,0.02,0.61,0.14,0.84,0.35c0.52,0.49,0.55,1.3,0.06,1.82
			c-0.06,0.07-0.13,0.13-0.2,0.18c-1.77,1.4-3.7,2.6-5.74,3.57c-2.8,1.45-5.95,2.87-9.45,4.27c-3.55,1.4-7.18,2.57-10.87,3.52
			c-3.19,0.9-6.48,1.4-9.8,1.47c-1.87,0.08-3.74-0.26-5.46-1c-1.24-0.55-2.16-1.63-2.52-2.94c-0.28-1.11-0.25-2.27,0.07-3.36
			c0.31-1.15,0.71-2.27,1.19-3.36c0.41-0.93,0.91-1.82,1.47-2.66c0.33-0.45,0.63-0.92,0.91-1.4c0.56-0.75,1.17-0.84,1.82-0.28
			c0.21,0.26,0.34,0.58,0.35,0.91c0.06,0.35,0.03,0.71-0.07,1.05c-0.38,0.52-0.73,1.06-1.05,1.61c-0.42,0.7-0.82,1.42-1.19,2.17
			c-0.36,0.71-0.64,1.47-0.84,2.24c-0.19,0.65-0.19,1.35,0,2c0.06,0.68,0.43,1.3,1,1.68c0.63,0.3,1.31,0.49,2,0.56
			c0.74,0.09,1.49,0.14,2.24,0.14c3.04-0.08,6.07-0.52,9-1.33c3.49-0.88,6.93-1.98,10.29-3.29c3.33-1.33,6.39-2.67,9.17-4
			C922.48,58.42,924.42,57.22,926.18,55.78z M890.76,53.14c-0.22-0.01-0.42-0.11-0.56-0.28c-0.47-0.19-0.51-0.47-0.14-0.84
			c0.1-0.22,0.17-0.46,0.21-0.7c0.04-0.26,0.17-0.51,0.35-0.7c-0.01-0.07,0.05-0.13,0.12-0.14c0.01,0,0.01,0,0.02,0
			c0.07,0.01,0.13-0.03,0.14-0.1c0-0.01,0-0.03,0-0.04c0.31-0.36,0.82-0.47,1.26-0.28c0.17,0.08,0.33,0.18,0.49,0.28
			c0.16,0.1,0.32,0.2,0.49,0.28c0.27,0.25,0.38,0.64,0.28,1l-0.28,0.14l-1.12,0.7c-0.26,0.33-0.6,0.57-1,0.7L890.76,53.14z"/>
		<path class="st0" d="M982.04,55.36c0.26-0.19,0.6-0.24,0.91-0.14c0.3,0.06,0.54,0.27,0.63,0.56c0.28,0.34,0.31,0.82,0.07,1.19
			c-0.24,0.52-0.6,0.98-1.05,1.33c-1.92,1.15-3.9,2.18-5.95,3.08c-2.29,1.03-4.67,1.97-7.14,2.8c-2.5,0.85-5.05,1.55-7.63,2.1
			c-2.44,0.54-4.92,0.82-7.42,0.84c-1.08,0.01-2.16-0.09-3.22-0.28c-0.95-0.17-1.88-0.4-2.8-0.7c-1.73-0.55-3.15-1.79-3.92-3.43
			c-0.5-1.26-0.92-2.54-1.26-3.85c-0.37-2-0.93-3-1.68-3.22c-1.54-0.09-3.06,0.33-4.34,1.19c-1.89,1.06-3.7,2.28-5.39,3.64
			c-1.8,1.43-3.53,2.95-5.18,4.55c-1.32,1.24-2.57,2.55-3.75,3.92c-0.3,0.21-0.64,0.36-1,0.42h-0.56c-0.29-0.21-0.51-0.5-0.63-0.84
			c-0.12-0.27-0.19-0.55-0.21-0.84l0.56-1.4c0.47-1.21,1.14-2.87,2-5c0.8-1.92,1.76-3.77,2.87-5.53c0.37-0.61,1.17-0.81,1.78-0.44
			c0.01,0.01,0.02,0.01,0.04,0.02c0.57,0.51,0.69,1.35,0.28,2c-0.42,0.72-0.79,1.47-1.13,2.23c-0.47,0.93-0.93,1.91-1.4,2.94
			c1.21-1.12,2.57-2.29,4.06-3.5c1.44-1.18,2.96-2.25,4.55-3.22c1.41-0.86,2.88-1.61,4.41-2.24c1.14-0.53,2.41-0.68,3.64-0.42
			c1.14,0.24,2.11,0.97,2.66,2c0.48,1,0.82,2.06,1,3.15c0.18,1.08,0.48,2.14,0.91,3.15c0.55,1.09,1.55,1.88,2.73,2.17
			c1.62,0.47,3.31,0.71,5,0.7c2.16-0.02,4.32-0.25,6.44-0.7c2.41-0.49,4.8-1.12,7.14-1.89c2.45-0.8,4.86-1.74,7.21-2.8
			c2.3-1.02,4.52-2.2,6.65-3.54H982.04z"/>
		<path class="st0" d="M1041.12,55.78c0.58,0.4,0.73,1.2,0.33,1.78c-0.06,0.08-0.12,0.15-0.19,0.22c-3.13,3.38-6.98,6.01-11.27,7.7
			c-5.26,2.21-10.67,4.08-16.17,5.6c-1.66,5.7-4.06,11.16-7.14,16.24c-3.13,5.33-6.94,10.22-11.34,14.56
			c-3.22,2.75-6.86,4.97-10.78,6.58c-3.33,1.41-6.89,2.17-10.5,2.24c-5.04,0-9.01-1.35-11.9-4.06c-2.34-1.88-3.73-4.7-3.78-7.7
			c0.14-3.01,1.22-5.89,3.08-8.26c2.03-2.66,4.52-4.94,7.35-6.72c3.24-2.07,6.66-3.85,10.22-5.32c3.92-1.64,7.92-3.07,12-4.27
			c4.24-1.26,8.46-2.45,12.67-3.57l1.4-0.28c1-0.28,2.07-0.54,3.15-0.77c1.11-0.24,2.21-0.55,3.29-0.91
			c0.93-3.57,1.45-7.23,1.54-10.92c0-0.94-0.04-1.87-0.14-2.8c-0.09-0.8-0.23-1.6-0.42-2.38c-0.93-2.52-2.37-3.97-4.34-4.34
			c-1.27-0.06-2.53,0.23-3.64,0.84c-1.42,0.72-2.76,1.59-4,2.59c-1.42,1.12-2.75,2.34-4,3.64c-1.33,1.33-2.59,2.67-3.78,4
			c-2.26,2.45-4.64,4.79-7.14,7c-2.24,1.96-4.34,2.8-6.3,2.52h0.14c-1.42-0.26-2.62-1.2-3.22-2.52c-0.34-1.54-0.1-3.16,0.68-4.53
			c0.76-1.64,1.78-3.15,3-4.48c1.49-1.53,3.31-2.7,5.32-3.43c1.84-0.7,3.86-0.77,5.74-0.21c0.84,0.19,1.12,0.7,0.84,1.54
			s-0.75,1-1.68,0.84c-2.9-0.75-5.7,0.33-8.4,3.22c-1.01,1.04-1.84,2.25-2.45,3.57c-0.47,0.78-0.6,1.72-0.35,2.59
			c0,0.37,0.37,0.56,1.12,0.56c1.21,0.28,2.71-0.4,4.48-2c1.77-1.6,3.64-3.52,5.6-5.67l0.7-0.7c1.4-1.4,2.82-2.85,4.27-4.34
			c1.39-1.45,2.89-2.78,4.48-4c1.41-1.09,2.94-2.03,4.55-2.8c1.34-0.68,2.85-0.94,4.34-0.77c3.08,0.28,5.27,2.24,6.58,5.88
			c0.28,0.94,0.47,1.9,0.56,2.87c0.09,1,0.14,2.08,0.14,3.29c0,1.59-0.1,3.18-0.28,4.76c-0.19,1.59-0.47,3.31-0.84,5.18
			c4.98-1.43,9.86-3.16,14.63-5.18c3.78-1.49,7.19-3.79,10-6.72c0.26-0.22,0.58-0.34,0.91-0.35
			C1040.51,55.5,1040.86,55.57,1041.12,55.78z M993.52,99.88c4.13-3.71,7.64-8.06,10.4-12.88c2.84-4.81,5.11-9.93,6.79-15.26
			l-2.94,0.84l-3.36,0.84c-4.11,1.12-8.24,2.29-12.39,3.5c-3.99,1.15-7.91,2.51-11.76,4.06c-3.45,1.38-6.77,3.05-9.94,5
			c-2.68,1.58-5.02,3.68-6.9,6.16c-0.75,1.03-1.34,2.16-1.75,3.36c-0.39,1.03-0.6,2.12-0.63,3.22c0.01,2.28,1.04,4.43,2.8,5.88
			c2.52,2.24,5.97,3.36,10.36,3.36c3.29-0.07,6.54-0.75,9.59-2C987.39,104.56,990.68,102.5,993.52,99.88z"/>
		<path class="st0" d="M1045.92,68.38c0.72-0.15,1.47-0.03,2.1,0.35c0.44,0.57,0.65,1.29,0.56,2v0.7l-0.42,0.42
			c-0.66,0.46-1.2,1.09-1.54,1.82c-0.08,0.07-0.14,0.17-0.14,0.28c-0.13,0.32-0.38,0.57-0.7,0.7l0.14-0.14
			c-0.32,0.26-0.71,0.41-1.12,0.42c-0.34,0.01-0.68-0.04-1-0.14c-0.45-0.18-0.92-0.32-1.4-0.42c-0.48-0.09-0.95-0.23-1.4-0.42
			c-0.22-0.11-0.43-0.22-0.63-0.35c-0.23-0.13-0.44-0.3-0.63-0.49c-0.19-0.2-0.34-0.44-0.42-0.7c-0.08-0.23-0.13-0.46-0.14-0.7
			c0.12-0.32,0.31-0.61,0.56-0.84l0.7-0.7C1042.14,69.24,1044,68.64,1045.92,68.38z"/>
	</g>
</g>
<g id="mask_1_">
	<g id="mask">
		<path class="st1" d="M112.1,14.58C87.65,1.09,11.43,2.99,3.55,20.28c-3.14,6.27,30.31,8.1,34.12,32.56
			c0.57,19.33-7.32,35.9-13.83,41.58C28.49,78.65,43,37.25,60.1,12.8"/>
		<path class="st1" d="M86.98,14.9c-7.69,10.7-27.87,41.76-30.8,52.08c9.04-10.4,27.29-19.33,24.06-9.26
			c-3.48,7.24-14.06,15.2,3.99,14.44c17.68-1.14,36.24-22.27,39.85-17.79c-4.48,1.4-18.68,10.59-5.71,10.23
			c4.78,0.29,9.95-11.9,15.47-11.77c-2.42,7.35-5.42,17.61,20.81,11.34c6.41-1.71,13.9-4.96,14.93-8.89
			c-3.25,6.61-5.24,11.27-5.74,13.93c6.91-7.32,21.88-23.39,23.31-10.72c2.28,8.82,11.69,10.85,36.63-1.78"/>
		<path class="st1" d="M251.05,14.9c-7.04,8.8-28.19,42.19-30.8,52.22c6.8-9.21,17.06-15.2,22.05-11.63
			c-7.55-2.57-19.96,7.37-7.13,13.73c8.6,3.71,35.21-3.8,44.33-13.4"/>
		<path class="st1" d="M319.51,55.22c-3.23,7.06-5.95,18.69,8.37,7.42c9.57-8.64,10.83-18.41,16.15-5.3
			c5.75,16.39-10.45,51.51-33.07,52.08c-13.68,0.38-18.48-19.72,21.57-32.83c25.09-5.54,42.08-20.86,52.74-20.1"/>
		<path class="st1" d="M393.68,50.32c-9.06-4.24-25.81,15.15-13.97,19.56C388.98,73.02,401.14,52,393.68,50.32z"/>
		<path class="st1" d="M377.2,59.33c4.08,3.71,13.35,7.85,31.02,2.57c11.16-3.06,16.77-2.86,23.23-5.42
			c-4.61,7.14-4.62,18.73,24.04-4.08c-6.75,18.92,30.12,10.26,37.06,3.71"/>
		<path class="st1" d="M534.09,55.22c21.29-8.9,49.93-35.32,40.36-39.5c-10.14-5.51-41.31,33.47-50.43,55.6
			c-5.56,14.05-21.51,40.33-8.93,39.33c7.45-0.71-5.23-24.18,0.56-30.79c4.76-9.12,34.83-9.12,46.95-12.68
			c6.98-2.14,25.29-11.42,31.03-10.56"/>
		<path class="st1" d="M601.93,49.64c-9.12-3.14-26.51,11.9-15.39,20.28C592.81,74.16,611.05,52.78,601.93,49.64z"/>
		<path class="st1" d="M585.83,59.49c4.7,7.54,44.2,2.1,52.04-2.45c8.4-5.95,7.12-14.24-1.29-10.08c-12.4,6.72,4.85,10.1,5.13,13.81
			c2.57,3.56-4.64,10.97,14.43,6.84c10.66-2.85,21.63-8.42,24.77-11.12"/>
		<path class="st1" d="M731.01,54.49c-11.05-3.14-24.83,15.29-4.49,13.54c21.38-0.71,41.59-13.02,49.18-11.55"/>
		<path class="st1" d="M783.96,49.56c-12.4-5.33-23.8,17.99-14.82,19.94C780.26,72.17,791.38,52.89,783.96,49.56z"/>
		<path class="st1" d="M768.14,59.26c9.33,8.55,41.2,2.93,53.31-2.78c-1,3.28-5.37,12.46-5.37,12.46
			c9.36-14.59,20.09-19.69,22.19-17.55c2.99,1.96-3.4,16.31-4.41,17.69c4.21-4.96,14.93-11.43,18.72-9.59
			c3.79,1.84-3.05,6.93,1.51,9.59s31.57-9.38,35.35-13.44c-2.99,5.26-9.54,16.38,7.56,12.82c9.12-2,28.51-7.98,29.93-11.97
			c-2.28,6.13-5.43,12.73-5.43,12.73c9.6-11.5,22.97-21.84,23.54-9.73c0.86,10.99,25.23,4.69,36.78-2.29"/>
		<path class="st1" d="M990.08,54.47c-6.42-2.4-20.95,11.28-8.27,12.85c5.7,1.28,20.95-26.09,29.01-19.96
			c9.34,8.7-3.25,38.38-14.33,51.89c-10.52,14.68-51.89,12.54-31.36-11.12c8.98-12.26,64.37-18.04,76.23-32.33"/>
		<path class="st2" d="M1041.36,71.87c1.88,1.57,5.88-0.99,5.88-2.56"/>
		<path class="st3" d="M891,51.89c0.41-0.85,0.79-1.4,2.22-0.97"/>
	</g>
</g>
</svg>
