<svg id="mask" xmlns="http://www.w3.org/2000/svg" viewBox="0 0 1049.9 109.97">
<defs>
<style>.cls-1,.cls-2,.cls-3{fill:none;stroke:#fff;stroke-linecap:round;stroke-linejoin:round;}.cls-1{stroke-width:5px;}.cls-2{stroke-width:7px;}.cls-3{stroke-width:3px;}</style>
</defs>
<title>mask</title>
<path class="cls-1" d="M112.1,14.58C87.65,1.09,11.43,3,3.55,20.28c-3.14,6.27,30.31,8.1,34.11,32.56.57,19.33-7.31,35.9-13.82,41.58C28.49,78.65,43,37.25,60.1,12.8" transform="translate(-0.84 -3.21)"/>
<path class="cls-1" d="M87,14.9C79.28,25.6,59.1,56.66,56.18,67c9-10.4,27.29-19.33,24.05-9.26-3.48,7.24-14.06,15.21,4,14.45C101.9,71,120.47,49.9,124.08,54.38c-4.48,1.4-18.69,10.59-5.72,10.23,4.78.29,10-11.9,15.47-11.77-2.42,7.35-5.42,17.62,20.81,11.34,6.42-1.71,13.91-5,14.94-8.89-3.25,6.61-5.25,11.27-5.74,13.93,6.91-7.32,21.88-23.39,23.3-10.72,2.28,8.82,11.69,10.85,36.63-1.78" transform="translate(-0.84 -3.21)"/>
<path class="cls-1" d="M251.05,14.9c-7,8.8-28.19,42.19-30.8,52.22,6.8-9.21,17.07-15.19,22.05-11.63-7.55-2.57-20,7.36-7.12,13.73,8.6,3.71,35.21-3.8,44.33-13.4" transform="translate(-0.84 -3.21)"/>
<path class="cls-1" d="M319.51,55.22c-3.23,7.06-5.95,18.69,8.37,7.42,9.57-8.64,10.83-18.41,16.15-5.3,5.75,16.39-10.45,51.51-33.07,52.08-13.68.38-18.48-19.72,21.57-32.84,25.09-5.54,42.09-20.85,52.74-20.1" transform="translate(-0.84 -3.21)"/>
<path class="cls-1" d="M393.68,50.32c-9.06-4.24-25.8,15.15-14,19.57C389,73,401.14,52,393.68,50.32Z" transform="translate(-0.84 -3.21)"/>
<path class="cls-1" d="M377.2,59.33c4.08,3.71,13.35,7.85,31,2.57C419.39,58.84,425,59,431.46,56.48c-4.61,7.14-4.62,18.73,24-4.08-6.75,18.92,30.12,10.26,37.06,3.71" transform="translate(-0.84 -3.21)"/>
<path class="cls-1" d="M534.09,55.22c21.28-8.9,49.93-35.32,40.36-39.5-10.14-5.51-41.31,33.47-50.44,55.6-5.55,14.05-21.51,40.33-8.92,39.33,7.45-.71-5.24-24.18.56-30.79,4.75-9.12,34.83-9.12,47-12.68,7-2.14,25.28-11.42,31-10.56" transform="translate(-0.84 -3.21)"/>
<path class="cls-1" d="M601.93,49.64c-9.12-3.13-26.51,11.91-15.39,20.28C592.81,74.16,611.05,52.78,601.93,49.64Z" transform="translate(-0.84 -3.21)"/>
<path class="cls-1" d="M585.83,59.49c4.7,7.54,44.2,2.1,52-2.45,8.4-5.95,7.12-14.24-1.29-10.08-12.41,6.72,4.84,10.1,5.13,13.81,2.56,3.56-4.64,11,14.43,6.83,10.65-2.85,21.63-8.42,24.77-11.12" transform="translate(-0.84 -3.21)"/>
<path class="cls-1" d="M731,54.49c-11-3.14-24.83,15.29-4.49,13.54,21.38-.71,41.59-13,49.18-11.55" transform="translate(-0.84 -3.21)"/>
<path class="cls-1" d="M784,49.56c-12.4-5.33-23.8,18-14.82,19.94C780.26,72.17,791.38,52.89,784,49.56Z" transform="translate(-0.84 -3.21)"/>
<path class="cls-1" d="M768.14,59.26c9.33,8.55,41.2,2.93,53.31-2.78-1,3.28-5.37,12.46-5.37,12.46,9.36-14.59,20.09-19.69,22.19-17.55,3,2-3.4,16.32-4.41,17.69,4.21-5,14.93-11.43,18.72-9.59s-3.05,6.93,1.51,9.59,31.57-9.38,35.35-13.44c-3,5.27-9.53,16.38,7.56,12.82,9.12-2,28.51-8,29.93-12-2.28,6.13-5.43,12.73-5.43,12.73,9.6-11.5,23-21.83,23.54-9.73.85,11,25.23,4.69,36.77-2.29" transform="translate(-0.84 -3.21)"/>
<path class="cls-1" d="M990.08,54.47c-6.42-2.4-21,11.28-8.27,12.85,5.7,1.28,21-26.09,29-20,9.34,8.7-3.25,38.38-14.33,51.89-10.52,14.68-51.88,12.54-31.36-11.12,9-12.26,64.37-18,76.23-32.33" transform="translate(-0.84 -3.21)"/>
<path class="cls-2" d="M1041.36,72c1.89,1.57,5.88-1,5.88-2.56" transform="translate(-0.84 -3.21)"/>
<path class="cls-3" d="M891,51.89c.42-.84.8-1.4,2.22-1" transform="translate(-0.84 -3.21)"/>
</svg>