<!-- <svg id="mask" xmlns="http://www.w3.org/2000/svg" viewBox="0 0 1046.53 107.1"> -->
<svg id="mask" xmlns="http://www.w3.org/2000/svg" viewBox="0 0 1049.9 109.97">
    <defs>
        <style>
            .cls-1 {
                fill: #fff;
            }
        </style>
    </defs>
    <title>text</title>
    <path class="cls-1" d="M109.8,12.24c.74.28.93.89.56,1.82s-1.08,1-1.82.56a36.79,36.79,0,0,0-8.05-3.36A75,75,0,0,0,90.13,9q-5.67-.84-12-1.26T65.42,7.34q-8.27,0-16.59.63T33.08,9.72A132.76,132.76,0,0,0,19.5,12.45,60.92,60.92,0,0,0,9.42,15.88q-4.2,1.68-4.62,3.78v.14c-.1.75.65,1.61,2.24,2.59s3.36,2,5.32,3c0-.09.14,0,.42.28a.57.57,0,0,0,.42.14c2.24,1.12,4.59,2.38,7.07,3.78a48.47,48.47,0,0,1,7.14,5,41.39,41.39,0,0,1,6.23,6.51,25.88,25.88,0,0,1,4.2,8.26c.09.19.16.35.21.49l.21.77q3.63-7.85,7.14-14.49t6.3-11.62q2.79-5,4.55-7.91c1.16-2,1.84-3.08,2-3.36a2.27,2.27,0,0,1,.77-.49,1.19,1.19,0,0,1,1.05.07,1.1,1.1,0,0,1,.28,1.82l.14-.14a.42.42,0,0,1-.14.28,8,8,0,0,0-.7,1h.14c-.66,1-1.71,2.82-3.15,5.39s-3.15,5.67-5.11,9.31-4,7.65-6.23,12S41,51.35,38.82,55.92a57.72,57.72,0,0,1-3.57,17.43A97.13,97.13,0,0,1,25,93.86v-.14a5.94,5.94,0,0,1-.56.49,1,1,0,0,1-.56.21c-.38,0-.56,0-.56-.14a1.29,1.29,0,0,1-.7-1.68,187.19,187.19,0,0,1,6.16-19q3.63-9.53,7.42-18.2a14.08,14.08,0,0,0-.28-2.66c-.19-.93-.38-1.82-.56-2.66a23.12,23.12,0,0,0-3.85-7.7,34.15,34.15,0,0,0-5.88-6,50.33,50.33,0,0,0-6.86-4.55c-2.38-1.31-4.6-2.47-6.65-3.5-3-1.59-5.46-3-7.42-4.34s-2.8-2.85-2.52-4.62A5.17,5.17,0,0,1,4,16.3a25.77,25.77,0,0,1,4.41-2.94,49.75,49.75,0,0,1,8.82-3.08q5.31-1.39,11.83-2.52T43,5.87q7.41-.76,15.12-1c1.21-.09,2.52-.14,3.92-.14h3.78A154.85,154.85,0,0,1,92,6.64Q103.36,8.61,109.8,12.24ZM27.2,86.16l.7-2.66-1.4,2.38Zm1-3.08-.14.28-.14.14Z"
        transform="translate(-2.08 -4.68)" />
    <path class="cls-1" d="M117.78,55.5a1.17,1.17,0,0,1,1-.14,1.75,1.75,0,0,1,.84.42,1.6,1.6,0,0,1-.14,1.82,99,99,0,0,1-10.78,6.93,87.69,87.69,0,0,1-10.5,5,71.12,71.12,0,0,1-9.52,3,35,35,0,0,1-7.84,1c-2.9,0-5-.51-6.44-1.54a4.71,4.71,0,0,1-1.82-2.66,6.63,6.63,0,0,1,1-4.34c.88-1.49,1.89-3,3-4.62a30.54,30.54,0,0,0,2-2.87c.6-1,.81-1.7.63-2.17L79,55.08a7.72,7.72,0,0,0-4.9.63A39.43,39.43,0,0,0,68,58.86a61.09,61.09,0,0,0-6,4.27q-2.88,2.31-4.41,3.71c-.19.19-.33.28-.42.28h-1V67l-.28-.14a.12.12,0,0,1-.14-.14l-.14-.14v-.14l-.14-.28v-.42a.53.53,0,0,1,.14-.42l1.47-3.08q1.32-2.8,3.57-7.14t5.18-9.73Q68.78,40,72,34.43t6.65-10.57A101,101,0,0,1,85.3,15,1.11,1.11,0,0,1,87,14.9c.65.47.7,1.07.14,1.82a119.08,119.08,0,0,0-7.21,10.22q-3.85,6-7.49,12.25t-6.72,12q-3.09,5.81-5,9.59,2.1-1.55,4.62-3.22a43.33,43.33,0,0,1,5.11-2.94,27.23,27.23,0,0,1,5-1.89,9.28,9.28,0,0,1,4.34-.21,3.44,3.44,0,0,1,1.54,1c.28.37.51.7.7,1A4.54,4.54,0,0,1,81.31,58c-.7,1.26-1.57,2.64-2.59,4.13a21.66,21.66,0,0,0-2.31,3.5,9.48,9.48,0,0,0-1.19,3.22.28.28,0,0,0,.07.21.33.33,0,0,1,.07.21v.14a8.59,8.59,0,0,0,5.46,1.54A34.4,34.4,0,0,0,88,70a60,60,0,0,0,9-2.8,85.86,85.86,0,0,0,10.15-4.83A98.83,98.83,0,0,0,117.78,55.5Z"
        transform="translate(-2.08 -4.68)" />
    <path class="cls-1" d="M168.6,55.64a1.11,1.11,0,0,1,1-.35,1.42,1.42,0,0,1,.84.35,1.56,1.56,0,0,1,0,2,27.68,27.68,0,0,1-5.53,3.92,50.77,50.77,0,0,1-7.14,3.22,51.52,51.52,0,0,1-7.84,2.17,40.62,40.62,0,0,1-7.63.77A17.26,17.26,0,0,1,134,66a5.85,5.85,0,0,1-2.66-2.8,9,9,0,0,1-.7-3.5,11,11,0,0,1,.21-2.17c.14-.7.25-1.33.35-1.89l-1,.84-.84.84c-1.12,1-2.34,2.1-3.64,3.22a40.69,40.69,0,0,1-3.85,2.94,21.15,21.15,0,0,1-3.78,2,5.8,5.8,0,0,1-3.29.49,4.18,4.18,0,0,1-2.17-1.4,2.75,2.75,0,0,1-.49-2.38,6.61,6.61,0,0,1,1.47-2.87,16,16,0,0,1,2.87-2.73,12.27,12.27,0,0,1,3.64-1.89,8.6,8.6,0,0,1,3.92-.35,1.28,1.28,0,0,1,.7.63,1.94,1.94,0,0,1,.28.91,1.66,1.66,0,0,1-.63.77,1.63,1.63,0,0,1-.91.35,6.32,6.32,0,0,0-2.87.42,11.59,11.59,0,0,0-2.73,1.47,10.74,10.74,0,0,0-2.1,2,4.29,4.29,0,0,0-1,1.89c-.1.28.09.56.56.84a6.1,6.1,0,0,0,2.59-.84,24.29,24.29,0,0,0,3.29-2.1Q123,59.42,124.64,58c1.12-.93,2.1-1.82,2.94-2.66a47.88,47.88,0,0,1,3.85-3.22,3.75,3.75,0,0,1,2-.84c.65,0,1,.23,1.12.7l-.14-.14a2.43,2.43,0,0,1,.28,1,3.47,3.47,0,0,1-.28,1.19c-.28.93-.54,1.89-.77,2.87a11.48,11.48,0,0,0-.35,2.73,4.57,4.57,0,0,0,1.82,4.06,9.28,9.28,0,0,0,3.15,1,26.78,26.78,0,0,0,4,.28,37.71,37.71,0,0,0,6.86-.7,49.08,49.08,0,0,0,7.35-2,52.45,52.45,0,0,0,6.79-2.94A21.68,21.68,0,0,0,168.6,55.64Z"
        transform="translate(-2.08 -4.68)" />
    <path class="cls-1" d="M224.46,55.22a1,1,0,0,1,.9-.14.87.87,0,0,1,.64.56,1,1,0,0,1,.06,1.19,3.6,3.6,0,0,1-1,1.33,53.43,53.43,0,0,1-6,3.08q-3.42,1.55-7.13,2.8a68.62,68.62,0,0,1-7.63,2.1,35.54,35.54,0,0,1-7.42.84,17.81,17.81,0,0,1-3.23-.28,21.19,21.19,0,0,1-2.8-.7,6.47,6.47,0,0,1-3.91-3.43,33.31,33.31,0,0,1-1.26-3.85c-.38-2-.94-3-1.68-3.22a7.12,7.12,0,0,0-4.35,1.19,39,39,0,0,0-5.38,3.64,66.85,66.85,0,0,0-5.18,4.55,48.68,48.68,0,0,0-3.71,3.92,2.49,2.49,0,0,1-1,.42h-.56a1.71,1.71,0,0,1-.63-.84,2.39,2.39,0,0,1-.21-.84l.56-1.4q.69-1.81,2-5a35.15,35.15,0,0,1,2.87-5.53,1.29,1.29,0,0,1,1.81-.42,1.55,1.55,0,0,1,.29,2,19.52,19.52,0,0,0-1.26,2.24c-.47.93-.94,1.91-1.4,2.94q1.82-1.68,4.06-3.5a40.27,40.27,0,0,1,4.55-3.22,30.59,30.59,0,0,1,4.41-2.24,5.74,5.74,0,0,1,3.64-.42,4,4,0,0,1,2.66,2,11.78,11.78,0,0,1,1,3.15,14.36,14.36,0,0,0,.91,3.15,4.19,4.19,0,0,0,2.74,2.17,17.59,17.59,0,0,0,5,.7,32.65,32.65,0,0,0,6.43-.7,63.7,63.7,0,0,0,7.15-1.89,72.43,72.43,0,0,0,7.21-2.8,51.58,51.58,0,0,0,6.64-3.57Z"
        transform="translate(-2.08 -4.68)" />
    <path class="cls-1" d="M277.93,55.5a1.31,1.31,0,0,1,1.05-.14,1.76,1.76,0,0,1,.91.42,1.37,1.37,0,0,1,.21,1,1.11,1.11,0,0,1-.49.84,65.67,65.67,0,0,1-9.17,5.6,78.63,78.63,0,0,1-10.08,4.27,69.61,69.61,0,0,1-10.08,2.66,50.85,50.85,0,0,1-9.17.91,27,27,0,0,1-6.16-.63,8.59,8.59,0,0,1-4.2-2.17,9,9,0,0,1-1.82-2.73,7.62,7.62,0,0,1-.14-4.41q-2.23,1.55-4.2,3.15c-1.3,1.07-2.33,2-3.08,2.73a.44.44,0,0,0-.28.14h-1L220,67c-.18,0-.28-.14-.28-.42a1.18,1.18,0,0,1-.28-.84v-.14l.14-.28c.1-.28.61-1.35,1.54-3.22s2.13-4.25,3.57-7.14,3.15-6.14,5.11-9.73,4-7.21,6.23-10.85,4.41-7.14,6.65-10.5A95.46,95.46,0,0,1,249.23,15a1.27,1.27,0,0,1,1.82-.14,1.19,1.19,0,0,1,0,1.82,102.88,102.88,0,0,0-7.35,10.22q-3.84,6-7.42,12.32t-6.65,12.11q-3.07,5.81-5,9.59c.94-.75,2-1.49,3.08-2.24s2.29-1.49,3.5-2.24A24.11,24.11,0,0,1,237.05,54a9.33,9.33,0,0,1,5.18-.07,1.14,1.14,0,0,1,1,1.54c-.37.84-.93,1.17-1.68,1a6.35,6.35,0,0,0-4,.21,26.91,26.91,0,0,0-5,2.17v-.14a11,11,0,0,0-1.4,4.62,4.75,4.75,0,0,0,1.26,2.94,6.27,6.27,0,0,0,3.36,1.54,28.41,28.41,0,0,0,5.18.42A55.13,55.13,0,0,0,251.89,67,73.3,73.3,0,0,0,266,62.29,62.63,62.63,0,0,0,277.93,55.5Z"
        transform="translate(-2.08 -4.68)" />
    <path class="cls-1" d="M377.75,55.36a1.05,1.05,0,0,1,.91-.21,1.5,1.5,0,0,1,.91.35,1.62,1.62,0,0,1,0,1.82,48.34,48.34,0,0,1-14.91,9q-9.17,3.7-19.81,7.35a54.78,54.78,0,0,1-3.78,13.09A45.09,45.09,0,0,1,333.37,99a40.11,40.11,0,0,1-11.55,8.61,26,26,0,0,1-11.13,3,12.22,12.22,0,0,1-8-2.52,7.45,7.45,0,0,1-2.94-6.3q0-3.5,3.08-8.4a32.08,32.08,0,0,1,7.21-6.93,72.52,72.52,0,0,1,9.73-5.81Q325.11,78,331,75.8t11.62-4.2a31.65,31.65,0,0,0,.35-3.5c.05-1.12.07-2.19.07-3.22a38.73,38.73,0,0,0-.35-5.39,16.86,16.86,0,0,0-1.05-4.13c-.56-1.4-1.07-2.15-1.54-2.24a3.08,3.08,0,0,0-2,.49,15.7,15.7,0,0,0-2.17,1.61,25.13,25.13,0,0,0-2.31,2.31q-1.18,1.34-2.31,2.73c-.93,1.12-1.87,2.22-2.8,3.29a20.26,20.26,0,0,1-2.94,2.8,13.43,13.43,0,0,1-3.08,1.82,5.79,5.79,0,0,1-3.22.35,4.73,4.73,0,0,1-2.38-1A6.69,6.69,0,0,1,315.59,66a4.53,4.53,0,0,1-.49-2.87,15.09,15.09,0,0,1,.77-3.15c.38-1,.75-1.94,1.12-2.73a7.15,7.15,0,0,1,.84-1.47,1.11,1.11,0,0,1,1.68-.56,1.76,1.76,0,0,1,.56,1.82,14.56,14.56,0,0,0-.84,1.68,20.5,20.5,0,0,0-.77,2.1,13.82,13.82,0,0,0-.49,2.24,3.83,3.83,0,0,0,.14,1.82,2.34,2.34,0,0,0,1.54,1c1.59.28,3.17-.4,4.76-2s3.22-3.43,4.9-5.39c1.87-2.15,3.66-4.06,5.39-5.74a6.84,6.84,0,0,1,5.53-2.24,5.15,5.15,0,0,1,2,.91,6.19,6.19,0,0,1,2,3A25.66,25.66,0,0,1,345.27,59a37.79,37.79,0,0,1,.42,5.88c0,1,0,2-.07,2.87a22.82,22.82,0,0,1-.35,2.87q10.08-3.36,18.69-6.86A43.76,43.76,0,0,0,377.75,55.36ZM331.41,97.22a41.49,41.49,0,0,0,6.93-10.78,54.39,54.39,0,0,0,3.71-11.76q-5.74,2-11.27,4.13a114.15,114.15,0,0,0-10.43,4.69,71,71,0,0,0-8.89,5.39A29.67,29.67,0,0,0,305,95.12a17.66,17.66,0,0,0-1.82,3.57,9.63,9.63,0,0,0-.7,3.15,5.3,5.3,0,0,0,.56,2.38,7.57,7.57,0,0,0,1.4,2,10,10,0,0,0,6.44,1.82,23.76,23.76,0,0,0,9.8-2.52A35.07,35.07,0,0,0,331.41,97.22Z"
        transform="translate(-2.08 -4.68)" />
    <path class="cls-1" d="M430.81,55.22c.75-.47,1.31-.23,1.68.7a.9.9,0,0,1,.07.91,1.56,1.56,0,0,1-.77.77,82.73,82.73,0,0,1-9.45,3.08q-5.25,1.4-10.85,2.38T400.64,64.6c-3.5.37-6.65.61-9.45.7a23.47,23.47,0,0,1-4.62,4.27,9,9,0,0,1-5.18,1.75q-3.78,0-5.46-2.24a7.79,7.79,0,0,1-1.68-4.76A7.59,7.59,0,0,1,375,61a12.41,12.41,0,0,1,1.89-2.87,6.82,6.82,0,0,1,1.19-3,18.87,18.87,0,0,1,2.45-3,21.69,21.69,0,0,1,4.9-3.15,12.91,12.91,0,0,1,5.6-1.33,7.8,7.8,0,0,1,1.75.21,10.64,10.64,0,0,1,1.61.49,4.5,4.5,0,0,1,1.89,1.75q1.05,1.47.35,4.69a38.56,38.56,0,0,1-1.19,3.78,17.18,17.18,0,0,1-2.17,4.06q3.91-.14,8.75-.63t9.8-1.47q5-1,9.87-2.31A83.68,83.68,0,0,0,430.81,55.22ZM381.39,68.66q3.23,0,6.3-3.5a14.29,14.29,0,0,1-1.61-.07c-.42,0-.86-.12-1.33-.21a21.3,21.3,0,0,1-4.34-1.4,6.82,6.82,0,0,1-2.8-2.24,5.44,5.44,0,0,0-.84,3.08,4.54,4.54,0,0,0,1.12,3A4.31,4.31,0,0,0,381.39,68.66Zm3.78-6.44a20.75,20.75,0,0,0,4.76.42,22.15,22.15,0,0,0,4.2-8.4,4.18,4.18,0,0,0,.14-1.89,1.87,1.87,0,0,0-.84-1.47,7.41,7.41,0,0,0-5.67,0A16.42,16.42,0,0,0,382.37,54l-1.05,1a6.32,6.32,0,0,0-.77.91,9.72,9.72,0,0,1,2-.42,19.92,19.92,0,0,1,2.38-.14c.75,0,1.12.42,1.12,1.26s-.37,1.4-1.12,1.4a11.4,11.4,0,0,0-2.87.35,9.43,9.43,0,0,0-2.31.91,5.37,5.37,0,0,0,2,1.82A9.13,9.13,0,0,0,385.17,62.22Zm4.9.42h-.14v.14Z"
        transform="translate(-2.08 -4.68)" />
    <path class="cls-1" d="M491.43,55.22a1,1,0,0,1,1.05,0,2.37,2.37,0,0,1,.77.7,2.34,2.34,0,0,1-.21.91,2.55,2.55,0,0,1-.49.77c-.28.19-1.38.7-3.29,1.54s-4.22,1.77-6.93,2.8a77.79,77.79,0,0,1-8.82,2.73,37.16,37.16,0,0,1-9,1.19,13.09,13.09,0,0,1-7.56-2.1,7.1,7.1,0,0,1-2.45-3.64,13.13,13.13,0,0,1-.49-5.32l-2.24,1.61c-.84.61-1.63,1.24-2.38,1.89Q447.33,60,445,61.66t-4.69,3.15a30.66,30.66,0,0,1-4.48,2.38,10.37,10.37,0,0,1-4,.91,5.05,5.05,0,0,1-2.24-.42h.14a4.94,4.94,0,0,1-2.8-3.5A7.51,7.51,0,0,1,428,59.49,22.72,22.72,0,0,1,431,55.36a1.27,1.27,0,0,1,1.82.14,1.2,1.2,0,0,1,0,1.82,12.62,12.62,0,0,0-3.36,6.44q.55,1.13,1.26,1.26A4.12,4.12,0,0,0,434,65a24.28,24.28,0,0,0,4.48-2.1,47.49,47.49,0,0,0,4.76-3.22q2.39-1.81,4.48-3.36,3.92-2.94,5.6-4.13c1.12-.79,2-1,2.8-.49a8.5,8.5,0,0,1,.7.84A1.69,1.69,0,0,1,457,54.1q-1.12,5.59,1.68,7.7a9.84,9.84,0,0,0,5.74,1.4,32.89,32.89,0,0,0,6.93-.84,74.45,74.45,0,0,0,7.63-2.1Q482.75,59,486,57.6C488.23,56.67,490,55.87,491.43,55.22Z"
        transform="translate(-2.08 -4.68)" />
    <path class="cls-1" d="M585.23,55.64a1.21,1.21,0,0,1,1-.35,1.5,1.5,0,0,1,.91.35,1.35,1.35,0,0,1,0,2,29.05,29.05,0,0,1-7.63,5.18,65.38,65.38,0,0,1-9.66,3.64A108.9,108.9,0,0,1,559,69q-5.67,1-11.41,2-7,1.13-13.79,2.45a44.69,44.69,0,0,0-11.27,3.57,145.89,145.89,0,0,0-6.3,13.58l.84,3.5.28,1c.56,1.87,1,3.66,1.4,5.39a22.64,22.64,0,0,1,.56,4.69,8.11,8.11,0,0,1-1,4.34,4.93,4.93,0,0,1-3.78,2.1.58.58,0,0,0-.28.07.94.94,0,0,1-.42.07,3.83,3.83,0,0,1-2.17-.7,4.63,4.63,0,0,1-1.61-1.82,4.79,4.79,0,0,1-.42-1.47,12.93,12.93,0,0,1-.14-1.89A26.46,26.46,0,0,1,510.61,99a79.06,79.06,0,0,1,2.94-8.54,15.63,15.63,0,0,1-.28-7.7q1.4-4.76,7.28-7.84l3.5-6.72q3.23-5.59,7.28-12.25t8.61-13.09q4.54-6.43,9.24-12.18a86.51,86.51,0,0,1,9-9.66q8-7.14,13.44-7.14a7.15,7.15,0,0,1,3.64,1h-.14a3.54,3.54,0,0,1,1.4,1.26,4.26,4.26,0,0,1,.56,2.8,14.22,14.22,0,0,1-2.38,5.67,61.37,61.37,0,0,1-5.39,7.07,85.73,85.73,0,0,1-7.63,7.63q-4.35,3.86-9.1,7.35A103.41,103.41,0,0,1,543,53a55.59,55.59,0,0,1-9.38,4.34q-2.52,4.07-4.76,8c-1.5,2.61-2.89,5.27-4.2,8A69.11,69.11,0,0,1,535,70.48q5.81-1.12,12.25-2.24,5.6-.84,11.13-1.82T568.92,64a55.93,55.93,0,0,0,9.17-3.43A25.89,25.89,0,0,0,585.23,55.64ZM516.07,108c.74-1.12.91-2.82.49-5.11s-1-4.64-1.61-7.07l-.28-.84v-.14a46.09,46.09,0,0,0-2.38,8.33,9.88,9.88,0,0,0,.14,5.11v-.14a3.05,3.05,0,0,0,.63.7,1.52,1.52,0,0,0,1.19.14,3.29,3.29,0,0,0,2-1Zm-.42-21.14V85.18l-.56,1.54Zm0-1.68L518,79.86a9.35,9.35,0,0,0-1.4,1.75,15.39,15.39,0,0,0-1,1.89ZM560,23a91.22,91.22,0,0,0-12,13.16q-6.09,8-12.25,17.5A81.57,81.57,0,0,0,549.18,46,107.55,107.55,0,0,0,561.43,36a89.12,89.12,0,0,0,9.1-9.87c2.42-3.13,3.73-5.62,3.92-7.49,0-.75-.14-1.21-.42-1.4a8.07,8.07,0,0,0-1.26-.49,4.16,4.16,0,0,0-1.12-.21,10.77,10.77,0,0,0-5.88,2A47.65,47.65,0,0,0,560,23Z"
        transform="translate(-2.08 -4.68)" />
    <path class="cls-1" d="M638.43,55.22c.74-.47,1.3-.23,1.68.7a.92.92,0,0,1,.07.91,1.56,1.56,0,0,1-.77.77A82.73,82.73,0,0,1,630,60.68q-5.25,1.4-10.85,2.38T608.26,64.6c-3.5.37-6.65.61-9.45.7a23.47,23.47,0,0,1-4.62,4.27A9,9,0,0,1,589,71.32q-3.78,0-5.46-2.24a7.79,7.79,0,0,1-1.68-4.76,7.45,7.45,0,0,1,.77-3.29,12.1,12.1,0,0,1,1.89-2.87,6.82,6.82,0,0,1,1.19-3,18.34,18.34,0,0,1,2.45-3,21.69,21.69,0,0,1,4.9-3.15,12.87,12.87,0,0,1,5.6-1.33,7.8,7.8,0,0,1,1.75.21,11,11,0,0,1,1.61.49,4.5,4.5,0,0,1,1.89,1.75c.7,1,.81,2.54.35,4.69a38.56,38.56,0,0,1-1.19,3.78,17.55,17.55,0,0,1-2.17,4.06q3.92-.14,8.75-.63c3.22-.33,6.48-.82,9.8-1.47s6.6-1.42,9.87-2.31A84.4,84.4,0,0,0,638.43,55.22ZM589,68.66q3.21,0,6.3-3.5a14.17,14.17,0,0,1-1.61-.07c-.42,0-.87-.12-1.33-.21a21.3,21.3,0,0,1-4.34-1.4,6.75,6.75,0,0,1-2.8-2.24,5.44,5.44,0,0,0-.84,3.08,4.54,4.54,0,0,0,1.12,3A4.3,4.3,0,0,0,589,68.66Zm3.78-6.44a20.69,20.69,0,0,0,4.76.42,22.15,22.15,0,0,0,4.2-8.4,4.32,4.32,0,0,0,.14-1.89,1.92,1.92,0,0,0-.84-1.47,7.41,7.41,0,0,0-5.67,0A16.42,16.42,0,0,0,590,54q-.57.55-1,1a5.74,5.74,0,0,0-.77.91,9.72,9.72,0,0,1,2-.42,19.79,19.79,0,0,1,2.38-.14c.74,0,1.12.42,1.12,1.26s-.38,1.4-1.12,1.4a11.34,11.34,0,0,0-2.87.35,9.43,9.43,0,0,0-2.31.91,5.29,5.29,0,0,0,2,1.82A9.13,9.13,0,0,0,592.79,62.22Zm4.9.42h-.14v.14Z"
        transform="translate(-2.08 -4.68)" />
    <path class="cls-1" d="M679.45,55.5a1,1,0,0,1,.91-.21,1.5,1.5,0,0,1,.91.35,1.86,1.86,0,0,1,0,2,47.18,47.18,0,0,1-7.71,4.9,79.58,79.58,0,0,1-8.88,3.92A66.41,66.41,0,0,1,655.93,69a35.46,35.46,0,0,1-7.42.91,12.55,12.55,0,0,1-4.9-.7,4.74,4.74,0,0,1-2.73-3.29,26.93,26.93,0,0,1-.63-4.13,11.32,11.32,0,0,0-.49-3.08,1.57,1.57,0,0,0-1.62-.84c-3.54,0-5.83-.93-6.85-2.8v.14c-.94-1.31-.7-3.08.69-5.32V50a11.41,11.41,0,0,1,3.93-4.13,9.56,9.56,0,0,1,5.31-1.75c1.87.19,3.08.84,3.65,2,.56,1.31.32,2.8-.7,4.48s-2.15,3.45-3.37,5.32a3.46,3.46,0,0,1,1.68,2.59,20.55,20.55,0,0,1,.29,3.29,19.81,19.81,0,0,0,.42,3.15,2.5,2.5,0,0,0,1.4,1.75,6.91,6.91,0,0,0,1.75.42,17,17,0,0,0,2.17.14,35.68,35.68,0,0,0,7.13-.84A60.16,60.16,0,0,0,664,64a62.41,62.41,0,0,0,8.33-3.71A39.53,39.53,0,0,0,679.45,55.5Zm-41-.84c.37-.47.79-1,1.26-1.75s.88-1.4,1.26-2.1.69-1.38,1-2a4.25,4.25,0,0,0,.42-1.54.57.57,0,0,0-.56-.28H641a7,7,0,0,0-3.72,1.33,10.13,10.13,0,0,0-3.14,3.15,5.53,5.53,0,0,0-.56,1.12,1.16,1.16,0,0,0,0,1.12c.18.47.72.82,1.6,1a17.86,17.86,0,0,0,3,.49v-.28l.15-.14Z"
        transform="translate(-2.08 -4.68)" />
    <path class="cls-1" d="M768.34,55.36c.66-.37,1.36-.14,2.1.7.38.75.14,1.31-.7,1.68h.14a60.8,60.8,0,0,1-10.57,4.83,123.43,123.43,0,0,1-12.46,3.71q-6.36,1.55-12.39,2.38a75.81,75.81,0,0,1-10.22.84c-1.21,0-2.28,0-3.22-.14a6.47,6.47,0,0,1-2.24-.56,6.39,6.39,0,0,1-3.43-3.08,5.2,5.2,0,0,1-.07-4.48,11.48,11.48,0,0,1,2.45-3.85,18.84,18.84,0,0,1,3.92-3.22,15.42,15.42,0,0,1,4.48-1.89,7.33,7.33,0,0,1,4.27.14c.94.37,1.26.89,1,1.54q-.69,1.26-1.68.84a6,6,0,0,0-3.36.14,14.44,14.44,0,0,0-3.57,1.68,17.53,17.53,0,0,0-3.15,2.59,9.48,9.48,0,0,0-2,2.87,2.58,2.58,0,0,0,0,2.59,5.36,5.36,0,0,0,2.1,1.75,7.55,7.55,0,0,0,2,.42,23.65,23.65,0,0,0,2.52.14,68.49,68.49,0,0,0,9.66-.84q5.75-.84,12-2.38a117.55,117.55,0,0,0,12.18-3.71A64.76,64.76,0,0,0,768.34,55.36Z"
        transform="translate(-2.08 -4.68)" />
    <path class="cls-1" d="M821.26,55.22c.75-.47,1.31-.23,1.68.7a.9.9,0,0,1,.07.91,1.48,1.48,0,0,1-.77.77,82.73,82.73,0,0,1-9.45,3.08q-5.25,1.4-10.85,2.38T791.09,64.6c-3.5.37-6.65.61-9.45.7A23.19,23.19,0,0,1,777,69.57a8.94,8.94,0,0,1-5.18,1.75q-3.78,0-5.46-2.24a7.78,7.78,0,0,1-1.67-4.76,7.57,7.57,0,0,1,.76-3.29,12.74,12.74,0,0,1,1.89-2.87,7,7,0,0,1,1.19-3,18.87,18.87,0,0,1,2.45-3A21.92,21.92,0,0,1,775.9,49a12.94,12.94,0,0,1,5.6-1.33,7.73,7.73,0,0,1,1.75.21,10.3,10.3,0,0,1,1.61.49,4.5,4.5,0,0,1,1.89,1.75c.71,1,.82,2.54.35,4.69a36,36,0,0,1-1.19,3.78,16.83,16.83,0,0,1-2.17,4.06c2.62-.09,5.53-.3,8.75-.63s6.49-.82,9.8-1.47,6.61-1.42,9.87-2.31A83.68,83.68,0,0,0,821.26,55.22ZM771.84,68.66q3.23,0,6.3-3.5a14.1,14.1,0,0,1-1.6-.07c-.43,0-.87-.12-1.33-.21a21.4,21.4,0,0,1-4.35-1.4,6.88,6.88,0,0,1-2.8-2.24,5.44,5.44,0,0,0-.84,3.08,4.59,4.59,0,0,0,1.12,3A4.33,4.33,0,0,0,771.84,68.66Zm3.78-6.44a20.75,20.75,0,0,0,4.76.42,22.15,22.15,0,0,0,4.2-8.4,4,4,0,0,0,.14-1.89,1.87,1.87,0,0,0-.84-1.47,7.4,7.4,0,0,0-5.67,0A16.52,16.52,0,0,0,772.82,54l-1.05,1a7,7,0,0,0-.77.91,9.88,9.88,0,0,1,2-.42,19.92,19.92,0,0,1,2.38-.14c.75,0,1.12.42,1.12,1.26s-.37,1.4-1.12,1.4a11.46,11.46,0,0,0-2.87.35,9.76,9.76,0,0,0-2.31.91,5.45,5.45,0,0,0,2,1.82A9.19,9.19,0,0,0,775.62,62.22Zm4.9.42h-.14v.14Z"
        transform="translate(-2.08 -4.68)" />
    <path class="cls-1" d="M889.58,55.78A1.42,1.42,0,0,1,889,57.6l-5.11,2.8q-3.84,2.1-8.75,4.34t-9.94,4a27.07,27.07,0,0,1-8.68,1.75,6.67,6.67,0,0,1-2.94-.56,3,3,0,0,1-2.17-2.59,12.83,12.83,0,0,1,.07-3.57,9.93,9.93,0,0,0,.14-1.75,1.74,1.74,0,0,0-.28-1.19l-.14-.28v.14a9.94,9.94,0,0,0-3.78,1A40.6,40.6,0,0,0,843,64c-1.49.89-2.92,1.82-4.27,2.8s-2.4,1.75-3.15,2.31a1.78,1.78,0,0,1-1.68,0,1.82,1.82,0,0,1-.56-1.54c.56-1.21,1.12-2.59,1.68-4.13s1.07-3,1.54-4.48a26.17,26.17,0,0,0,1-4,9.35,9.35,0,0,0,.14-2.66,8.36,8.36,0,0,0-4.06,1.61A41.31,41.31,0,0,0,828.26,58q-2.81,2.52-5.53,5.39T817.9,68.8a1.27,1.27,0,0,1-1.82.14c-.56-.19-.74-.61-.56-1.26a1.17,1.17,0,0,1,.14-.42,9.89,9.89,0,0,0,.42-1c.47-1.31,1.19-3,2.17-5.18a44.77,44.77,0,0,1,3-5.6l-.14.14c.56-.75,1.17-.84,1.82-.28s.84.84.84,1.12a17.93,17.93,0,0,0-1.47,2.31c-.42.79-.82,1.56-1.19,2.31,1.22-1.4,2.59-2.82,4.13-4.27A43.79,43.79,0,0,1,829.94,53a27.62,27.62,0,0,1,4.55-2.66,6.74,6.74,0,0,1,3.85-.7A2.41,2.41,0,0,1,840,51a5.71,5.71,0,0,1,.35,2.52A23,23,0,0,1,840,56.9a32,32,0,0,1-1,3.78c-.42,1.31-.82,2.52-1.19,3.64.93-.65,2-1.35,3.15-2.1a39.76,39.76,0,0,1,3.57-2,35.4,35.4,0,0,1,3.5-1.54,9.19,9.19,0,0,1,3.22-.63,2.94,2.94,0,0,1,2.1,1,2.9,2.9,0,0,1,.77,2,12.4,12.4,0,0,1-.07,2.38v.42c-.18,2.15,0,3.41.56,3.78,1.49.47,3.73.3,6.72-.49a70.87,70.87,0,0,0,9.45-3.29c3.31-1.4,6.54-2.92,9.66-4.55s5.58-3,7.35-4l-.14.14c.66-.56,1.26-.47,1.82.28Z"
        transform="translate(-2.08 -4.68)" />
    <path class="cls-1" d="M926.26,55.64a1.12,1.12,0,0,1,1-.35,1.39,1.39,0,0,1,.84.35,1.29,1.29,0,0,1-.14,2,29.78,29.78,0,0,1-5.74,3.57q-4.2,2.17-9.45,4.27A92.45,92.45,0,0,1,901.9,69a39.28,39.28,0,0,1-9.8,1.47,12.49,12.49,0,0,1-5.46-1,4.54,4.54,0,0,1-2.52-2.94,6.42,6.42,0,0,1,.07-3.36,23.21,23.21,0,0,1,1.19-3.36,18,18,0,0,1,1.47-2.66,15.13,15.13,0,0,0,.91-1.4c.56-.75,1.17-.84,1.82-.28a1.5,1.5,0,0,1,.35.91,2.33,2.33,0,0,1-.07,1.05,19.19,19.19,0,0,0-1.05,1.61c-.42.7-.82,1.42-1.19,2.17a11.35,11.35,0,0,0-.84,2.24,3.61,3.61,0,0,0,0,2,2.25,2.25,0,0,0,1,1.68,5.93,5.93,0,0,0,2,.56,18.71,18.71,0,0,0,2.24.14,37.48,37.48,0,0,0,9-1.33,88,88,0,0,0,10.29-3.29q5-2,9.17-4A25.79,25.79,0,0,0,926.26,55.64ZM890.84,53a.79.79,0,0,1-.56-.28c-.47-.19-.51-.47-.14-.84a2.77,2.77,0,0,0,.21-.7,1.33,1.33,0,0,1,.35-.7.13.13,0,0,1,.14-.14.12.12,0,0,0,.14-.14,1.09,1.09,0,0,1,1.26-.28,4.27,4.27,0,0,1,.49.28,5.34,5.34,0,0,0,.49.28,1,1,0,0,1,.28,1l-.28.14-1.12.7a2.07,2.07,0,0,1-1,.7Z"
        transform="translate(-2.08 -4.68)" />
    <path class="cls-1" d="M982.12,55.22a1,1,0,0,1,.91-.14.84.84,0,0,1,.63.56,1,1,0,0,1,.07,1.19,3.53,3.53,0,0,1-1.05,1.33,53.22,53.22,0,0,1-5.95,3.08q-3.43,1.55-7.14,2.8a68,68,0,0,1-7.63,2.1,35.46,35.46,0,0,1-7.42.84,17.7,17.7,0,0,1-3.22-.28,20.8,20.8,0,0,1-2.8-.7,6.49,6.49,0,0,1-3.92-3.43,33.31,33.31,0,0,1-1.26-3.85c-.37-2-.93-3-1.68-3.22a7.07,7.07,0,0,0-4.34,1.19,39,39,0,0,0-5.39,3.64,68.76,68.76,0,0,0-5.18,4.55A50.56,50.56,0,0,0,923,68.8a2.44,2.44,0,0,1-1,.42h-.56a1.71,1.71,0,0,1-.63-.84,2.64,2.64,0,0,1-.21-.84l.56-1.4q.71-1.81,2-5a36,36,0,0,1,2.87-5.53,1.3,1.3,0,0,1,1.82-.42,1.56,1.56,0,0,1,.28,2A23.11,23.11,0,0,0,927,59.42c-.47.93-.93,1.91-1.4,2.94,1.21-1.12,2.57-2.29,4.06-3.5a40.27,40.27,0,0,1,4.55-3.22,30.59,30.59,0,0,1,4.41-2.24,5.75,5.75,0,0,1,3.64-.42,3.92,3.92,0,0,1,2.66,2,11.8,11.8,0,0,1,1,3.15,13.84,13.84,0,0,0,.91,3.15,4.17,4.17,0,0,0,2.73,2.17,17.69,17.69,0,0,0,5,.7,32.74,32.74,0,0,0,6.44-.7,64.11,64.11,0,0,0,7.14-1.89,71.5,71.5,0,0,0,7.21-2.8A51.72,51.72,0,0,0,982,55.22Z"
        transform="translate(-2.08 -4.68)" />
    <path class="cls-1" d="M1041.2,55.64a1.28,1.28,0,0,1,.14,2,30.78,30.78,0,0,1-11.27,7.7,133.74,133.74,0,0,1-16.17,5.6,68.15,68.15,0,0,1-7.14,16.24,70.81,70.81,0,0,1-11.34,14.56,40,40,0,0,1-10.78,6.58,28.4,28.4,0,0,1-10.5,2.24q-7.56,0-11.9-4.06a10.08,10.08,0,0,1-3.78-7.7,14.46,14.46,0,0,1,3.08-8.26,27.83,27.83,0,0,1,7.35-6.72,65.66,65.66,0,0,1,10.22-5.32,116.25,116.25,0,0,1,12-4.27q6.36-1.89,12.67-3.57l1.4-.28c1-.28,2.07-.54,3.15-.77a32,32,0,0,0,3.29-.91,48.06,48.06,0,0,0,1.54-10.92,26.32,26.32,0,0,0-.14-2.8,20.63,20.63,0,0,0-.42-2.38q-1.39-3.78-4.34-4.34a6.93,6.93,0,0,0-3.64.84,22.84,22.84,0,0,0-4,2.59,39.35,39.35,0,0,0-4,3.64q-2,2-3.78,4a97.93,97.93,0,0,1-7.14,7q-3.36,2.94-6.3,2.52h.14a4.41,4.41,0,0,1-3.22-2.52A6.38,6.38,0,0,1,977,61.8a17.6,17.6,0,0,1,3-4.48,14.25,14.25,0,0,1,5.32-3.43,9,9,0,0,1,5.74-.21c.84.19,1.12.7.84,1.54s-.75,1-1.68.84q-4.35-1.12-8.4,3.22a13,13,0,0,0-2.45,3.57,3.25,3.25,0,0,0-.35,2.59c0,.37.37.56,1.12.56,1.21.28,2.71-.4,4.48-2s3.64-3.52,5.6-5.67l.7-.7q2.1-2.1,4.27-4.34a39.32,39.32,0,0,1,4.48-4,25.11,25.11,0,0,1,4.55-2.8,7.67,7.67,0,0,1,4.34-.77q4.62.42,6.58,5.88a15.34,15.34,0,0,1,.56,2.87c.09,1,.14,2.08.14,3.29a42.21,42.21,0,0,1-.28,4.76c-.19,1.59-.47,3.31-.84,5.18a129.14,129.14,0,0,0,14.63-5.18,28.18,28.18,0,0,0,10-6.72,1.48,1.48,0,0,1,.91-.35A1.05,1.05,0,0,1,1041.2,55.64Zm-47.6,44.1A52.06,52.06,0,0,0,1004,86.86a73.43,73.43,0,0,0,6.79-15.26l-2.94.84-3.36.84q-6.16,1.68-12.39,3.5a122.48,122.48,0,0,0-11.76,4.06,65.32,65.32,0,0,0-9.94,5A23.87,23.87,0,0,0,963.5,92a12.8,12.8,0,0,0-1.75,3.36,10,10,0,0,0-.63,3.22,7.68,7.68,0,0,0,2.8,5.88q3.78,3.36,10.36,3.36a26.78,26.78,0,0,0,9.59-2A31,31,0,0,0,993.6,99.74Z"
        transform="translate(-2.08 -4.68)" />
    <path class="cls-1" d="M1046,68.24a2.9,2.9,0,0,1,2.1.35,2.72,2.72,0,0,1,.56,2v.7l-.42.42a4.6,4.6,0,0,0-1.54,1.82.38.38,0,0,0-.14.28,1.32,1.32,0,0,1-.7.7l.14-.14a1.88,1.88,0,0,1-1.12.42,3.17,3.17,0,0,1-1-.14,7.68,7.68,0,0,0-1.4-.42,7.24,7.24,0,0,1-1.4-.42,7.11,7.11,0,0,1-.63-.35,2.8,2.8,0,0,1-.63-.49,1.71,1.71,0,0,1-.42-.7,2.39,2.39,0,0,1-.14-.7,2.17,2.17,0,0,1,.56-.84l.7-.7A15.79,15.79,0,0,1,1046,68.24Z"
        transform="translate(-2.08 -4.68)" />
</svg>